<svg xmlns="http://www.w3.org/2000/svg" xmlns:xlink="http://www.w3.org/1999/xlink" width="1105.512" height="263.622" viewBox="0 0 1105.512 263.622"><defs><clipPath id="b"><rect width="1105.512" height="263.622"/></clipPath></defs><g id="a" clip-path="url(#b)"><rect width="1105.512" height="263.622" fill="#fff"/><g transform="translate(2.079 0.198)"><g transform="translate(-2.079 -0.198)"><path d="M301.563,60.427a3.478,3.478,0,0,1,3.479-3.479H356.6c29.928,0,50.857,13.394,50.857,39.136,0,12.558-6.07,25.324-17.371,31.813v.418c17.161,5.232,23.44,20.509,23.44,33.694,0,32.649-27.207,44.578-56.926,44.578H305.042a3.479,3.479,0,0,1-3.479-3.479Zm55.459,54.494c9.21,0,13.186-6.7,13.186-13.813,0-6.907-3.976-12.768-13.813-12.768H338.188v26.581Zm3.14,60.274c10.674,0,15.9-7.326,15.9-15.7s-5.022-15.277-15.7-15.277H338.188V175.2Z" fill="#12365b"/><path d="M441.109,56.948h86.8a3.479,3.479,0,0,1,3.479,3.479V84.861a3.479,3.479,0,0,1-3.479,3.479H474.254v27.207H516.4a3.48,3.48,0,0,1,3.48,3.479v24.436a3.479,3.479,0,0,1-3.48,3.479H474.254V175.2h56.585a3.478,3.478,0,0,1,3.479,3.479v24.434a3.479,3.479,0,0,1-3.479,3.479h-89.73a3.48,3.48,0,0,1-3.48-3.479V60.427A3.479,3.479,0,0,1,441.109,56.948Z" fill="#12365b"/><path d="M629.023,54.437c29.981,0,48.172,13.846,54.019,19.125a3.464,3.464,0,0,1,.613,4.385L670.233,99.819a3.469,3.469,0,0,1-5.04.973c-5.7-4.3-18.981-12.87-34.5-12.87-28.672,0-42.276,21.138-42.276,42.694,0,22.184,14.651,45,42.276,45,17.149,0,31.165-10.6,36.931-15.717a3.474,3.474,0,0,1,5.154.6l14.879,21.16a3.479,3.479,0,0,1-.406,4.483A83.447,83.447,0,0,1,629.023,209.1c-46.881,0-78.482-33.277-78.482-77.644C550.541,87.922,584.026,54.437,629.023,54.437Z" fill="#12365b"/><path d="M780.179,131.767l54.092-70.623a2.609,2.609,0,0,0-2.072-4.2H797.391a3.481,3.481,0,0,0-2.794,1.4L749.133,119.57V60.427a3.478,3.478,0,0,0-3.479-3.479H715.988a3.478,3.478,0,0,0-3.479,3.479V203.108a3.479,3.479,0,0,0,3.479,3.479h29.666a3.479,3.479,0,0,0,3.479-3.479V143.965L794.6,205.182a3.481,3.481,0,0,0,2.794,1.4H832.2a2.609,2.609,0,0,0,2.072-4.2Z" fill="#12365b"/><path d="M862.618,56.948h86.8a3.479,3.479,0,0,1,3.48,3.479V84.861a3.479,3.479,0,0,1-3.48,3.479H895.764v27.207h36.205a3.48,3.48,0,0,1,3.48,3.479v24.436a3.479,3.479,0,0,1-3.48,3.479H895.764V175.2h56.585a3.479,3.479,0,0,1,3.479,3.479v24.434a3.48,3.48,0,0,1-3.479,3.479H862.618a3.48,3.48,0,0,1-3.479-3.479V60.427A3.479,3.479,0,0,1,862.618,56.948Z" fill="#12365b"/><path d="M984.08,60.427a3.479,3.479,0,0,1,3.48-3.479h48.633c15.277,0,22.6,1.046,29.089,3.557,16.952,6.489,27.627,21.766,27.627,43.533,0,15.9-7.536,33.275-22.4,40.81v.419a85.84,85.84,0,0,1,5.651,9L1103.1,202.71a2.609,2.609,0,0,1-2.281,3.877h-34.275a3.48,3.48,0,0,1-3.078-1.857l-25.6-48.58h-17.16v46.958a3.479,3.479,0,0,1-3.479,3.479H987.56a3.48,3.48,0,0,1-3.48-3.479Zm52.531,64.33c11.719,0,19.045-6.489,19.045-18.418,0-11.3-4.186-18-22.6-18h-12.348v36.417Z" fill="#12365b"/></g><g transform="translate(-2.079 -0.198)"><path d="M133.526.2A131.447,131.447,0,1,0,264.973,131.645,131.447,131.447,0,0,0,133.526.2Zm0,235.594a104.115,104.115,0,0,1-91.985-55.3l51.1-29.57a2.775,2.775,0,0,0,1.013-3.792L90.691,142a2.776,2.776,0,0,0-3.794-1.013L36.714,170.03A104.134,104.134,0,0,1,127.787,27.663V85.908a2.776,2.776,0,0,0,2.776,2.776h5.921a2.776,2.776,0,0,0,2.776-2.776V27.662a104.134,104.134,0,0,1,91.105,142.3L180.1,141.013a2.776,2.776,0,0,0-3.791,1.021l-2.955,5.13a2.776,2.776,0,0,0,1.021,3.791l51.169,29.467A104.116,104.116,0,0,1,133.526,235.792Z" fill="#12365b"/><path d="M217.428,145.318c.236-.8.468-1.611.681-2.425.042-.161.077-.325.119-.487.217-.85.429-1.7.621-2.562.025-.113.045-.228.07-.341.2-.911.391-1.826.562-2.747.026-.14.046-.282.071-.423.162-.9.317-1.8.452-2.7.047-.32.081-.643.125-.964.1-.732.2-1.462.286-2.2.045-.409.074-.824.114-1.236.064-.653.133-1.3.182-1.961.051-.688.08-1.381.115-2.073.02-.386.05-.77.065-1.158q.06-1.623.06-3.262,0-1.939-.084-3.858c-.021-.486-.065-.965-.094-1.448-.047-.791-.086-1.584-.154-2.368-.041-.469-.1-.931-.152-1.4-.082-.791-.156-1.586-.259-2.371-.059-.456-.14-.9-.207-1.359-.116-.789-.224-1.58-.361-2.362-.072-.411-.164-.815-.241-1.224-.155-.816-.305-1.633-.482-2.441-.1-.471-.228-.933-.339-1.4-.175-.738-.342-1.479-.535-2.209-.132-.5-.285-.983-.425-1.475-.2-.692-.384-1.388-.6-2.073-.166-.533-.354-1.055-.53-1.583-.211-.635-.411-1.275-.636-1.9-.19-.529-.4-1.046-.6-1.57-.234-.617-.458-1.239-.706-1.848-.211-.519-.444-1.027-.665-1.541-.259-.6-.508-1.212-.78-1.808-.221-.484-.463-.957-.692-1.437-.294-.613-.579-1.232-.886-1.837-.233-.458-.485-.9-.726-1.358-.326-.614-.643-1.233-.983-1.839-.237-.422-.493-.833-.737-1.251-.364-.624-.721-1.252-1.1-1.866-.222-.358-.459-.706-.686-1.061-.42-.659-.836-1.323-1.274-1.97-.239-.354-.494-.7-.738-1.046-.443-.636-.881-1.275-1.341-1.9-.251-.34-.517-.667-.772-1-.471-.62-.937-1.244-1.424-1.85-.254-.316-.522-.62-.78-.932-.506-.612-1.007-1.228-1.529-1.826-.269-.308-.552-.6-.825-.907-.528-.588-1.051-1.179-1.594-1.753-.268-.282-.548-.551-.82-.83-.564-.58-1.125-1.164-1.706-1.728-.259-.252-.53-.491-.792-.74-.607-.576-1.213-1.155-1.836-1.714-.242-.216-.494-.42-.737-.634-.658-.576-1.316-1.154-1.991-1.711-.253-.208-.516-.4-.771-.61-.678-.547-1.356-1.1-2.051-1.622-.273-.207-.556-.4-.831-.6C184.791,50,184.1,49.487,183.4,49c-.267-.186-.543-.358-.812-.541-.726-.493-1.451-.986-2.191-1.457-.3-.188-.6-.362-.9-.546-.726-.45-1.451-.9-2.191-1.33-.293-.17-.6-.325-.89-.492-.757-.426-1.513-.855-2.283-1.259-.279-.147-.566-.279-.847-.423-.8-.407-1.592-.815-2.4-1.2-.3-.143-.615-.272-.92-.412-.8-.366-1.6-.734-2.4-1.076-.31-.131-.628-.247-.94-.375-.816-.333-1.63-.668-2.458-.978-.309-.115-.626-.216-.937-.328-.839-.3-1.677-.607-2.527-.884-.329-.108-.666-.2-1-.3-.841-.264-1.682-.529-2.533-.768-.336-.093-.677-.171-1.014-.261-.844-.225-1.686-.453-2.54-.654H153.6l-.041-.011a3.142,3.142,0,0,0-3.809,3.089V96.026a3.148,3.148,0,0,1-3.148,3.148H120.5a3.148,3.148,0,0,1-3.147-3.148V38.79a3.143,3.143,0,0,0-3.81-3.089l-.041.011h-.012c-.853.2-1.7.429-2.54.654-.336.09-.678.168-1.013.261-.852.239-1.692.5-2.533.768-.331.1-.667.194-1,.3-.842.275-1.672.576-2.5.875-.319.116-.645.219-.962.338-.824.308-1.635.641-2.447.973-.316.129-.637.246-.95.379-.821.347-1.629.719-2.437,1.09-.294.135-.6.259-.888.4-.8.38-1.591.784-2.38,1.187-.289.147-.584.284-.87.434-.778.409-1.542.841-2.306,1.272-.287.162-.581.313-.866.478-.746.433-1.477.888-2.209,1.341-.292.181-.591.351-.881.536-.741.471-1.465.964-2.191,1.456-.269.183-.546.356-.813.542-.7.49-1.394,1-2.084,1.513-.276.2-.559.4-.832.6-.677.513-1.336,1.048-2,1.58-.273.22-.554.43-.825.653-.648.535-1.279,1.09-1.911,1.643-.27.236-.549.462-.816.7-.615.551-1.212,1.122-1.811,1.69-.271.257-.55.5-.817.763-.58.564-1.141,1.147-1.705,1.727-.272.279-.553.549-.82.831-.544.574-1.067,1.165-1.6,1.753-.273.3-.556.6-.825.907-.5.574-.981,1.165-1.466,1.752-.279.337-.569.665-.843,1.007-.474.59-.928,1.2-1.387,1.8-.268.352-.546.695-.809,1.051-.459.623-.9,1.262-1.341,1.9-.244.35-.5.692-.738,1.046-.438.647-.853,1.311-1.274,1.97-.226.355-.464.7-.685,1.061-.379.614-.736,1.242-1.1,1.866-.244.418-.5.829-.737,1.251-.365.651-.708,1.316-1.057,1.977-.215.407-.442.807-.651,1.218-.324.638-.624,1.289-.933,1.936-.214.447-.44.888-.646,1.34-.3.651-.57,1.315-.852,1.974-.195.458-.4.911-.592,1.373-.267.656-.509,1.324-.76,1.987-.181.479-.375.951-.547,1.433-.225.628-.426,1.268-.637,1.9-.176.528-.364,1.05-.53,1.583-.213.685-.4,1.381-.6,2.073-.14.492-.293.979-.424,1.475-.194.73-.361,1.471-.535,2.209-.111.468-.236.93-.34,1.4-.177.808-.326,1.625-.481,2.441-.078.409-.17.813-.242,1.224-.136.782-.245,1.573-.361,2.362-.066.454-.148.9-.207,1.359-.1.785-.177,1.58-.258,2.371-.049.467-.112.929-.152,1.4-.069.784-.107,1.577-.155,2.368-.029.483-.073.962-.094,1.448q-.084,1.918-.084,3.858,0,1.638.061,3.262c.014.388.044.772.064,1.158.035.692.064,1.385.115,2.073.049.657.119,1.308.182,1.961.04.412.069.827.115,1.236.082.738.185,1.468.285,2.2.044.321.078.644.125.964.135.906.29,1.805.452,2.7.026.141.045.283.071.423.171.921.362,1.836.562,2.747.025.113.045.228.07.341.192.86.4,1.712.622,2.562.041.162.076.326.118.487.231.881.48,1.754.737,2.624.037.126.069.253.106.379h0l.006.022a3.148,3.148,0,0,0,4.592,1.759l7.81-4.515,22.935-13.185,6.363-3.664a3.147,3.147,0,0,1,4.3,1.157l3.664,6.362,5.725,9.942,3.665,6.363a3.147,3.147,0,0,1-.609,3.894L78.46,171.271l-7.813,4.491a3.146,3.146,0,0,0-.773,4.851l.015.016h0c.216.229.437.452.654.679.284.295.566.593.854.885.206.209.418.412.626.619.308.3.614.613.926.914.217.209.439.412.658.619.31.292.617.587.931.874.241.221.488.436.731.654.3.267.594.537.9.8.212.185.429.364.643.547.34.291.678.583,1.022.869.162.134.328.264.492.4.4.328.8.655,1.205.975.187.147.377.289.565.434.388.3.774.6,1.167.9.2.149.4.292.6.439.387.285.773.571,1.165.849.181.129.365.252.547.379.416.291.831.583,1.253.867.207.139.419.273.627.411.4.264.8.53,1.2.787.272.174.549.34.822.51.347.216.692.436,1.043.647.254.153.513.3.768.451.375.22.747.443,1.125.658.227.13.457.253.686.38.412.23.823.462,1.24.685.151.081.305.158.456.238.5.262.994.524,1.5.778.2.1.4.2.607.3.456.226.912.453,1.373.671.236.112.476.217.714.327.431.2.86.4,1.294.592.216.1.436.185.653.279.46.2.92.4,1.385.591.195.081.393.155.589.234.489.2.976.395,1.469.584.37.141.745.274,1.118.411.323.119.644.242.969.356.354.125.712.242,1.068.362s.694.241,1.044.354.675.21,1.012.315c.375.116.747.237,1.124.348s.786.223,1.18.333c.326.092.65.188.977.276s.642.163.963.245c.407.1.812.213,1.22.311.277.067.557.125.834.189.455.1.908.213,1.365.31.481.1.965.195,1.449.289.258.051.515.107.775.155.56.1,1.124.2,1.688.292.185.03.369.066.554.1.5.08,1.006.15,1.51.221.252.035.5.076.753.109.411.055.826.1,1.239.148.347.041.693.087,1.042.124.534.057,1.072.1,1.61.149.229.02.457.046.687.064.464.037.932.063,1.4.092.306.019.611.044.918.061.206.011.414.015.621.024q1.659.076,3.334.089c.241,0,.481.01.722.01h0c.242,0,.481-.008.722-.01q1.676-.014,3.335-.089c.206-.009.414-.013.62-.024.307-.017.612-.042.918-.061.466-.029.934-.055,1.4-.092.23-.018.458-.044.688-.064.537-.047,1.075-.092,1.61-.149.348-.037.694-.083,1.042-.124.413-.049.827-.093,1.238-.148.252-.033.5-.074.753-.109.5-.071,1.009-.141,1.51-.221.186-.029.369-.065.554-.1.564-.094,1.128-.187,1.688-.292.26-.048.517-.1.776-.155.483-.094.968-.186,1.448-.289.388-.083.772-.175,1.158-.263.347-.079.7-.153,1.041-.236.39-.094.775-.2,1.162-.3.34-.087.683-.169,1.021-.26s.651-.184.977-.276c.394-.11.789-.217,1.181-.333.376-.111.749-.232,1.123-.348.337-.1.677-.206,1.012-.315s.7-.236,1.045-.354.713-.237,1.067-.362c.325-.114.646-.237.969-.356.373-.137.748-.27,1.118-.411.436-.167.866-.343,1.3-.516.253-.1.509-.2.761-.3.417-.172.829-.353,1.243-.531.265-.114.532-.223.8-.339.411-.182.818-.373,1.227-.562.259-.119.522-.235.78-.357.424-.2.843-.41,1.263-.617.239-.118.481-.231.719-.351.443-.223.881-.456,1.32-.687.21-.11.422-.216.631-.328.373-.2.74-.408,1.109-.613.272-.151.547-.3.818-.452.323-.184.641-.376.962-.564s.623-.36.931-.546.6-.373.9-.559c.321-.2.645-.394.963-.6.34-.218.675-.442,1.013-.664.271-.179.546-.354.816-.535.373-.252.741-.511,1.111-.769.229-.159.461-.315.688-.476.346-.246.685-.5,1.026-.749.247-.18.5-.357.741-.54.344-.257.681-.522,1.021-.784.237-.183.476-.362.711-.547.358-.282.71-.572,1.064-.86.211-.171.425-.339.634-.512.305-.254.6-.514.906-.771.253-.216.509-.427.759-.645.28-.245.555-.5.832-.744s.532-.47.793-.71c.29-.265.573-.537.859-.806.243-.23.49-.456.731-.688.272-.262.538-.531.807-.8.249-.245.5-.488.746-.736s.493-.512.739-.767.515-.527.767-.8h0l.015-.016a3.145,3.145,0,0,0-.773-4.851l-7.82-4.5-29.814-17.235a3.145,3.145,0,0,1-.609-3.894l3.664-6.363,5.725-9.942,3.664-6.362a3.147,3.147,0,0,1,4.3-1.157l6.363,3.664,22.927,13.18,7.819,4.52a3.148,3.148,0,0,0,4.591-1.759l.006-.021h0C217.323,145.705,217.372,145.51,217.428,145.318Z" fill="#12365b"/></g></g></g></svg>