<?xml version="1.0" encoding="utf-8"?>
<!-- Generator: Adobe Illustrator 25.2.0, SVG Export Plug-In . SVG Version: 6.00 Build 0)  -->
<svg version="1.1" id="baumer_logo" xmlns="http://www.w3.org/2000/svg" xmlns:xlink="http://www.w3.org/1999/xlink" x="0px"
	 y="0px" viewBox="0 0 200 80" style="enable-background:new 0 0 200 80;" xml:space="preserve">
<style type="text/css">
	.st0{fill:#0062AE;}
	.st1{fill:#9C9C9C;}
	.st2{clip-path:url(#SVGID_2_);fill:#0062AE;}
	.st3{clip-path:url(#SVGID_4_);fill:#0062AE;}
	.st4{clip-path:url(#SVGID_6_);fill:#0062AE;}
	.st5{clip-path:url(#SVGID_8_);fill:#0062AE;}
	.st6{clip-path:url(#SVGID_10_);fill:#0062AE;}
	.st7{clip-path:url(#SVGID_12_);fill:#0062AE;}
	.st8{clip-path:url(#SVGID_14_);fill:#0062AE;}
	.st9{clip-path:url(#SVGID_16_);fill:#0062AE;}
	.st10{clip-path:url(#SVGID_18_);fill:#0062AE;}
	.st11{clip-path:url(#SVGID_20_);fill:#0062AE;}
	.st12{clip-path:url(#SVGID_22_);fill:#0062AE;}
	.st13{clip-path:url(#SVGID_24_);fill:#0062AE;}
	.st14{clip-path:url(#SVGID_26_);fill:#0062AE;}
	.st15{clip-path:url(#SVGID_28_);fill:#0062AE;}
	.st16{clip-path:url(#SVGID_30_);fill:#0062AE;}
	.st17{clip-path:url(#SVGID_32_);fill:#0062AE;}
</style>
<g>
	<path class="st0" d="M108.44,33.04c0-1.33-0.34-2.38-1.03-3.14c-0.69-0.76-1.7-1.14-3.02-1.14h-2.84v8.39h2.77
		c1.35,0,2.38-0.33,3.07-1C108.1,35.48,108.44,34.45,108.44,33.04L108.44,33.04z M107.95,22.26c0-1.21-0.34-2.12-1.02-2.74
		c-0.67-0.62-1.61-0.92-2.79-0.92h-2.6v7.64h2.6c1.23,0,2.18-0.36,2.83-1.08C107.62,24.43,107.95,23.46,107.95,22.26L107.95,22.26z
		 M111.79,33.18c0,1.14-0.19,2.13-0.55,2.95c-0.37,0.82-0.87,1.51-1.51,2.05c-0.64,0.55-1.41,0.95-2.32,1.22
		c-0.9,0.26-1.89,0.39-2.96,0.39h-6.17v-23.8h6.52c0.93,0,1.78,0.13,2.57,0.39c0.78,0.26,1.46,0.65,2.03,1.16
		c0.57,0.51,1.02,1.14,1.36,1.89c0.33,0.75,0.5,1.6,0.5,2.55c0,1.35-0.36,2.51-1.07,3.46c-0.72,0.95-1.68,1.6-2.89,1.96
		c1.38,0.26,2.48,0.91,3.29,1.95C111.39,30.37,111.79,31.65,111.79,33.18L111.79,33.18z"/>
	<path class="st0" d="M124.15,30.99h-0.57c-0.71,0-1.42,0.04-2.13,0.13c-0.71,0.08-1.36,0.27-1.95,0.56
		c-0.59,0.29-1.07,0.69-1.44,1.2s-0.55,1.2-0.55,2.06c0,0.86,0.26,1.56,0.78,2.08c0.52,0.53,1.22,0.79,2.1,0.79
		c0.66,0,1.23-0.14,1.71-0.43c0.47-0.29,0.87-0.66,1.17-1.13c0.31-0.47,0.54-0.99,0.67-1.58c0.14-0.59,0.22-1.18,0.22-1.78V30.99
		L124.15,30.99z M124.36,39.79l-0.13-2.5c-0.62,0.95-1.29,1.68-2.02,2.17c-0.72,0.49-1.65,0.74-2.79,0.74
		c-0.74,0-1.41-0.13-2.03-0.39c-0.62-0.26-1.14-0.62-1.58-1.07c-0.44-0.45-0.78-1-1.03-1.63c-0.25-0.63-0.38-1.31-0.38-2.02
		c0-1.19,0.27-2.18,0.8-2.97c0.53-0.79,1.22-1.41,2.05-1.88c0.83-0.47,1.75-0.79,2.76-0.98c1.01-0.19,2-0.29,2.97-0.29h1.17v-1.07
		c0-1.17-0.26-2.11-0.76-2.84c-0.51-0.73-1.43-1.09-2.76-1.09c-0.76,0-1.55,0.17-2.38,0.5c-0.83,0.33-1.58,0.75-2.24,1.25
		l-0.22-2.75c0.83-0.41,1.65-0.74,2.46-1c0.81-0.26,1.75-0.39,2.82-0.39c2.19,0,3.75,0.54,4.69,1.62c0.93,1.08,1.41,2.55,1.41,4.41
		v8.29c0,0.74,0.02,1.42,0.05,2.04c0.03,0.62,0.07,1.24,0.11,1.86H124.36L124.36,39.79z"/>
	<path class="st0" d="M141.09,39.79l-0.04-2.57c-0.41,0.83-1,1.54-1.79,2.12c-0.79,0.58-1.73,0.87-2.82,0.87
		c-0.9,0-1.67-0.17-2.3-0.5c-0.63-0.33-1.14-0.78-1.52-1.34c-0.38-0.56-0.65-1.21-0.82-1.95c-0.17-0.74-0.25-1.51-0.25-2.33V21.94
		h3.06v12.05c0,0.48,0.05,0.94,0.14,1.38c0.09,0.44,0.25,0.83,0.47,1.16c0.21,0.33,0.5,0.6,0.86,0.8c0.36,0.2,0.8,0.3,1.32,0.3
		c0.57,0,1.07-0.14,1.5-0.41c0.43-0.27,0.78-0.62,1.06-1.06c0.28-0.43,0.48-0.9,0.61-1.43c0.13-0.52,0.2-1.02,0.2-1.5v-11.3h3.06
		v12.92c0,0.83,0.01,1.65,0.04,2.46c0.03,0.81,0.06,1.63,0.08,2.46H141.09L141.09,39.79z"/>
	<path class="st0" d="M165.66,39.79V27.74c0-0.43-0.03-0.87-0.09-1.31c-0.06-0.44-0.18-0.83-0.36-1.18
		c-0.18-0.35-0.44-0.63-0.77-0.84c-0.34-0.21-0.78-0.32-1.33-0.32c-0.5,0-0.94,0.14-1.32,0.43c-0.38,0.29-0.71,0.64-0.99,1.07
		c-0.28,0.43-0.48,0.9-0.61,1.41c-0.13,0.51-0.2,1-0.2,1.45v11.34h-3.02V27.74c0-0.43-0.03-0.87-0.09-1.31
		c-0.06-0.44-0.18-0.83-0.36-1.18c-0.18-0.35-0.44-0.63-0.77-0.84c-0.33-0.21-0.77-0.32-1.32-0.32c-0.5,0-0.94,0.14-1.33,0.43
		c-0.38,0.29-0.71,0.64-0.96,1.07c-0.26,0.43-0.46,0.9-0.59,1.41c-0.13,0.51-0.2,1-0.2,1.45v11.34h-3.06V26.87
		c0-0.81-0.02-1.63-0.05-2.46c-0.04-0.83-0.07-1.65-0.09-2.47h2.87l0.11,2.61c0.4-0.86,0.97-1.57,1.71-2.13
		c0.74-0.56,1.6-0.85,2.6-0.85c1.06,0,1.94,0.26,2.63,0.77c0.69,0.51,1.21,1.25,1.56,2.2c0.55-0.91,1.18-1.63,1.9-2.16
		c0.71-0.54,1.56-0.8,2.54-0.8c0.83,0,1.55,0.14,2.14,0.43c0.59,0.29,1.07,0.69,1.44,1.2c0.37,0.51,0.64,1.13,0.8,1.84
		c0.16,0.72,0.25,1.52,0.25,2.4v12.36H165.66L165.66,39.79z"/>
	<path class="st0" d="M181.94,29.58c0-0.55-0.04-1.15-0.13-1.81c-0.08-0.66-0.24-1.27-0.48-1.85c-0.24-0.57-0.56-1.06-0.98-1.45
		c-0.42-0.4-0.94-0.59-1.58-0.59c-0.64,0-1.18,0.19-1.62,0.57c-0.44,0.38-0.79,0.85-1.07,1.42c-0.27,0.56-0.47,1.18-0.59,1.85
		c-0.12,0.67-0.18,1.29-0.18,1.86H181.94L181.94,29.58z M175.33,31.65c0,0.74,0.07,1.47,0.22,2.2c0.14,0.73,0.39,1.39,0.75,1.97
		c0.35,0.58,0.82,1.06,1.41,1.43c0.58,0.37,1.33,0.55,2.23,0.55c0.71,0,1.44-0.12,2.19-0.37c0.75-0.25,1.42-0.58,2.02-0.98
		l0.21,2.75c-0.69,0.33-1.46,0.58-2.3,0.75c-0.84,0.17-1.64,0.25-2.41,0.25c-1.4,0-2.57-0.25-3.51-0.77c-0.94-0.51-1.7-1.2-2.3-2.06
		c-0.6-0.86-1.02-1.85-1.27-2.99c-0.25-1.13-0.37-2.33-0.37-3.59c0-1.1,0.12-2.19,0.37-3.29c0.25-1.1,0.64-2.09,1.16-2.97
		c0.52-0.88,1.2-1.6,2.04-2.15c0.83-0.55,1.84-0.82,3.03-0.82c1.21,0,2.22,0.27,3.01,0.82c0.8,0.55,1.43,1.26,1.89,2.13
		c0.46,0.87,0.79,1.84,0.98,2.9c0.19,1.06,0.28,2.09,0.28,3.09v1.15H175.33L175.33,31.65z"/>
	<path class="st0" d="M196.02,24.65c-0.14-0.02-0.29-0.05-0.43-0.07c-0.14-0.02-0.3-0.04-0.46-0.04c-0.67,0-1.23,0.17-1.71,0.5
		c-0.48,0.33-0.86,0.76-1.16,1.27c-0.3,0.51-0.51,1.08-0.64,1.69c-0.13,0.62-0.2,1.21-0.2,1.79v10h-3.06V26.87
		c0-0.83-0.02-1.65-0.05-2.46c-0.03-0.81-0.06-1.63-0.08-2.46h2.82l0.07,2.81c0.41-0.9,0.98-1.66,1.72-2.27
		c0.74-0.61,1.62-0.91,2.64-0.91c0.12,0,0.24,0.01,0.37,0.04c0.13,0.03,0.26,0.05,0.38,0.08L196.02,24.65L196.02,24.65z"/>
</g>
<path class="st1" d="M58.82,58.65h-0.36c-1.91,0-4.16,0.29-4.16,2.63c0,1.14,0.8,1.92,1.96,1.92c1.74,0,2.56-1.62,2.56-3.18V58.65
	L58.82,58.65z M58.98,64.19l-0.09-1.58c-0.78,1.16-1.6,1.83-3.03,1.83c-1.76,0-3.05-1.4-3.05-3.12c0-3,2.89-3.78,5.3-3.78h0.71
	v-0.78c0-1.58-0.56-2.63-2.32-2.63c-0.93,0-2.07,0.49-2.8,1.11l-0.13-1.45c1.02-0.56,1.85-0.91,3.09-0.91c2.52,0,3.58,1.4,3.58,3.65
	v5.25c0,0.85,0.05,1.63,0.11,2.41H58.98L58.98,64.19z"/>
<path class="st1" d="M65.47,64.44c-1.02,0-1.91-0.16-2.87-0.51l0.13-1.51c0.8,0.44,1.67,0.76,2.58,0.76c0.94,0,1.94-0.74,1.94-1.76
	c0-2.54-4.56-2.07-4.56-5.5c0-1.96,1.69-3.03,3.36-3.03c0.69,0,1.45,0.16,2.14,0.38l-0.13,1.38c-0.65-0.27-1.27-0.49-1.96-0.49
	c-0.93,0-1.87,0.65-1.87,1.65c0,2.6,4.54,2.05,4.54,5.46C68.77,63.21,67.41,64.44,65.47,64.44"/>
<path class="st1" d="M73.18,64.44c-1.02,0-1.91-0.16-2.87-0.51l0.14-1.51c0.8,0.44,1.67,0.76,2.58,0.76c0.94,0,1.94-0.74,1.94-1.76
	c0-2.54-4.57-2.07-4.57-5.5c0-1.96,1.69-3.03,3.36-3.03c0.69,0,1.45,0.16,2.14,0.38l-0.13,1.38c-0.65-0.27-1.27-0.49-1.96-0.49
	c-0.94,0-1.87,0.65-1.87,1.65c0,2.6,4.54,2.05,4.54,5.46C76.47,63.21,75.11,64.44,73.18,64.44"/>
<path class="st1" d="M78.78,53.1h1.45v11.09h-1.45V53.1L78.78,53.1z M78.76,48.74h1.49v1.92h-1.49V48.74L78.76,48.74z"/>
<path class="st1" d="M86.89,54.15c-2.14,0-2.58,2.83-2.58,4.45c0,1.69,0.36,4.56,2.58,4.56c2.23,0,2.61-2.87,2.61-4.56
	C89.49,56.87,89.18,54.15,86.89,54.15 M86.89,64.44c-3.18,0-4.14-3.18-4.14-5.83c0-2.63,1.14-5.72,4.14-5.72
	c3.25,0,4.14,3.03,4.14,5.72C91.03,61.23,90.05,64.44,86.89,64.44"/>
<path class="st1" d="M99.24,64.19v-7.62c0-1.29-0.53-2.4-1.91-2.4c-1.58,0-2.34,1.67-2.34,2.96v7.06h-1.45V56.4
	c0-1.11-0.05-2.18-0.07-3.3h1.34l0.04,1.6c0.49-0.98,1.47-1.83,2.8-1.83c2.23,0,3.01,1.71,3.01,3.67v7.64H99.24L99.24,64.19z"/>
<path class="st1" d="M113.15,49.36c-0.27-0.11-0.53-0.18-0.82-0.18c-0.98,0-1.38,0.67-1.38,1.71v2.2h1.94v1.23h-1.94v9.86h-1.42
	v-9.86h-1.69V53.1h1.69v-2.09c0-2.18,0.85-3.1,2.69-3.1c0.42,0,0.76,0.11,1.07,0.18L113.15,49.36L113.15,49.36z"/>
<path class="st1" d="M118.27,54.15c-2.14,0-2.58,2.83-2.58,4.45c0,1.69,0.35,4.56,2.58,4.56c2.23,0,2.61-2.87,2.61-4.56
	C120.87,56.87,120.56,54.15,118.27,54.15 M118.27,64.44c-3.19,0-4.14-3.18-4.14-5.83c0-2.63,1.13-5.72,4.14-5.72
	c3.25,0,4.14,3.03,4.14,5.72C122.41,61.23,121.43,64.44,118.27,64.44"/>
<path class="st1" d="M129.15,54.39c-0.13,0-0.29-0.04-0.42-0.04c-1.6,0-2.36,1.78-2.36,3.18v6.66h-1.45V56.4
	c0-1.11-0.04-2.18-0.07-3.3h1.33l0.05,1.69c0.47-1.05,1.4-1.92,2.58-1.92c0.16,0,0.33,0.07,0.47,0.09L129.15,54.39L129.15,54.39z"/>
<path class="st1" d="M160.62,64.19v-7.62c0-1.29-0.54-2.4-1.91-2.4c-1.58,0-2.34,1.67-2.34,2.96v7.06h-1.44V56.4
	c0-1.11-0.05-2.18-0.07-3.3h1.34l0.04,1.6c0.49-0.98,1.47-1.83,2.81-1.83c2.23,0,3,1.71,3,3.67v7.64H160.62L160.62,64.19z"/>
<path class="st1" d="M167.29,64.44c-1.02,0-1.91-0.16-2.87-0.51l0.13-1.51c0.8,0.44,1.67,0.76,2.58,0.76c0.93,0,1.94-0.74,1.94-1.76
	c0-2.54-4.56-2.07-4.56-5.5c0-1.96,1.69-3.03,3.36-3.03c0.69,0,1.45,0.16,2.13,0.38l-0.13,1.38c-0.64-0.27-1.27-0.49-1.96-0.49
	c-0.93,0-1.87,0.65-1.87,1.65c0,2.6,4.54,2.05,4.54,5.46C170.59,63.21,169.23,64.44,167.29,64.44"/>
<path class="st1" d="M176.4,54.15c-2.14,0-2.58,2.83-2.58,4.45c0,1.69,0.36,4.56,2.58,4.56c2.23,0,2.61-2.87,2.61-4.56
	C179,56.87,178.69,54.15,176.4,54.15 M176.4,64.44c-3.18,0-4.14-3.18-4.14-5.83c0-2.63,1.14-5.72,4.14-5.72
	c3.25,0,4.14,3.03,4.14,5.72C180.54,61.23,179.56,64.44,176.4,64.44"/>
<path class="st1" d="M187.28,54.39c-0.13,0-0.29-0.04-0.42-0.04c-1.61,0-2.36,1.78-2.36,3.18v6.66h-1.45V56.4
	c0-1.11-0.05-2.18-0.07-3.3h1.34l0.05,1.69c0.47-1.05,1.4-1.92,2.58-1.92c0.16,0,0.33,0.07,0.47,0.09L187.28,54.39L187.28,54.39z"/>
<path class="st1" d="M191.4,64.44c-1.02,0-1.91-0.16-2.87-0.51l0.14-1.51c0.8,0.44,1.67,0.76,2.58,0.76c0.93,0,1.94-0.74,1.94-1.76
	c0-2.54-4.56-2.07-4.56-5.5c0-1.96,1.7-3.03,3.36-3.03c0.69,0,1.45,0.16,2.14,0.38l-0.13,1.38c-0.65-0.27-1.27-0.49-1.96-0.49
	c-0.94,0-1.87,0.65-1.87,1.65c0,2.6,4.54,2.05,4.54,5.46C194.69,63.21,193.33,64.44,191.4,64.44"/>
<g>
	<path class="st0" d="M47.27,17.11c0.96,0,1.75,0.78,1.75,1.75c0,0.97-0.78,1.75-1.75,1.75c-0.97,0-1.75-0.78-1.75-1.75
		C45.52,17.89,46.3,17.11,47.27,17.11L47.27,17.11z"/>
	<path class="st0" d="M50.26,17.23c0.89,0,1.62,0.73,1.62,1.62c0,0.9-0.73,1.62-1.62,1.62c-0.89,0-1.62-0.73-1.62-1.62
		C48.64,17.96,49.37,17.23,50.26,17.23L50.26,17.23z"/>
	<path class="st0" d="M53.25,17.36c0.83,0,1.5,0.67,1.5,1.5c0,0.83-0.67,1.5-1.5,1.5c-0.82,0-1.49-0.67-1.49-1.5
		C51.76,18.03,52.43,17.36,53.25,17.36L53.25,17.36z"/>
	<path class="st0" d="M56.25,17.48c0.76,0,1.37,0.61,1.37,1.37c0,0.76-0.61,1.37-1.37,1.37c-0.76,0-1.37-0.61-1.37-1.37
		C54.88,18.1,55.49,17.48,56.25,17.48L56.25,17.48z"/>
	<path class="st0" d="M59.24,17.61c0.69,0,1.25,0.56,1.25,1.25c0,0.69-0.56,1.25-1.25,1.25c-0.69,0-1.25-0.56-1.25-1.25
		C57.99,18.17,58.55,17.61,59.24,17.61L59.24,17.61z"/>
	<path class="st0" d="M62.24,17.73c0.62,0,1.12,0.5,1.12,1.12c0,0.62-0.5,1.12-1.12,1.12c-0.62,0-1.13-0.5-1.13-1.12
		C61.11,18.24,61.62,17.73,62.24,17.73L62.24,17.73z"/>
	<path class="st0" d="M65.23,17.86c0.55,0,1,0.45,1,1c0,0.55-0.45,1-1,1c-0.55,0-1-0.45-1-1C64.23,18.31,64.68,17.86,65.23,17.86
		L65.23,17.86z"/>
	<path class="st0" d="M68.22,17.98c0.48,0,0.87,0.39,0.87,0.87c0,0.48-0.39,0.87-0.87,0.87c-0.48,0-0.87-0.39-0.87-0.87
		C67.35,18.37,67.74,17.98,68.22,17.98L68.22,17.98z"/>
	<path class="st0" d="M71.22,18.11c0.41,0,0.75,0.33,0.75,0.75c0,0.42-0.34,0.75-0.75,0.75c-0.41,0-0.75-0.33-0.75-0.75
		C70.47,18.44,70.81,18.11,71.22,18.11L71.22,18.11z"/>
	<path class="st0" d="M74.21,18.23c0.35,0,0.63,0.28,0.63,0.62c0,0.35-0.28,0.63-0.63,0.63c-0.34,0-0.62-0.28-0.62-0.63
		C73.59,18.51,73.87,18.23,74.21,18.23L74.21,18.23z"/>
	<path class="st0" d="M77.21,18.36c0.27,0,0.5,0.22,0.5,0.5c0,0.28-0.22,0.5-0.5,0.5c-0.28,0-0.5-0.22-0.5-0.5
		C76.71,18.58,76.93,18.36,77.21,18.36L77.21,18.36z"/>
	<path class="st0" d="M80.2,18.48c0.21,0,0.37,0.17,0.37,0.37c0,0.21-0.17,0.38-0.37,0.38c-0.21,0-0.37-0.17-0.37-0.38
		C79.83,18.65,79.99,18.48,80.2,18.48L80.2,18.48z"/>
	<path class="st0" d="M47.27,20.1c0.97,0,1.75,0.78,1.75,1.75c0,0.96-0.78,1.75-1.75,1.75c-0.96,0-1.74-0.78-1.74-1.75
		C45.52,20.88,46.3,20.1,47.27,20.1L47.27,20.1z"/>
	<path class="st0" d="M50.26,20.23c0.89,0,1.62,0.73,1.62,1.62c0,0.9-0.73,1.62-1.62,1.62c-0.89,0-1.62-0.73-1.62-1.62
		C48.64,20.95,49.37,20.23,50.26,20.23L50.26,20.23z"/>
	<path class="st0" d="M53.25,20.35c0.83,0,1.5,0.67,1.5,1.5c0,0.83-0.67,1.49-1.5,1.49c-0.82,0-1.49-0.67-1.49-1.49
		C51.76,21.02,52.43,20.35,53.25,20.35L53.25,20.35z"/>
	<path class="st0" d="M56.25,20.48c0.76,0,1.37,0.61,1.37,1.37c0,0.76-0.61,1.37-1.37,1.37c-0.76,0-1.37-0.61-1.37-1.37
		C54.88,21.09,55.49,20.48,56.25,20.48L56.25,20.48z"/>
	<path class="st0" d="M59.24,20.6c0.69,0,1.25,0.56,1.25,1.25c0,0.69-0.56,1.25-1.25,1.25c-0.69,0-1.25-0.56-1.25-1.25
		C57.99,21.16,58.55,20.6,59.24,20.6L59.24,20.6z"/>
	<path class="st0" d="M62.24,20.73c0.62,0,1.12,0.5,1.12,1.13c0,0.62-0.5,1.12-1.12,1.12c-0.62,0-1.13-0.5-1.13-1.12
		C61.11,21.23,61.62,20.73,62.24,20.73L62.24,20.73z"/>
	<path class="st0" d="M65.23,20.85c0.55,0,1,0.45,1,1c0,0.55-0.45,1-1,1c-0.55,0-1-0.45-1-1C64.23,21.3,64.68,20.85,65.23,20.85
		L65.23,20.85z"/>
	<path class="st0" d="M68.22,20.98c0.48,0,0.87,0.39,0.87,0.87c0,0.48-0.39,0.87-0.87,0.87c-0.48,0-0.87-0.39-0.87-0.87
		C67.35,21.37,67.74,20.98,68.22,20.98L68.22,20.98z"/>
	<path class="st0" d="M71.22,21.1c0.41,0,0.75,0.33,0.75,0.75c0,0.41-0.34,0.75-0.75,0.75c-0.41,0-0.75-0.34-0.75-0.75
		C70.47,21.43,70.81,21.1,71.22,21.1L71.22,21.1z"/>
	<path class="st0" d="M74.21,21.23c0.35,0,0.63,0.28,0.63,0.62c0,0.34-0.28,0.62-0.63,0.62c-0.34,0-0.62-0.28-0.62-0.62
		C73.59,21.5,73.87,21.23,74.21,21.23L74.21,21.23z"/>
	<path class="st0" d="M77.21,21.35c0.27,0,0.5,0.22,0.5,0.5c0,0.28-0.22,0.5-0.5,0.5c-0.28,0-0.5-0.22-0.5-0.5
		C76.71,21.57,76.93,21.35,77.21,21.35L77.21,21.35z"/>
	<path class="st0" d="M80.2,21.48c0.21,0,0.37,0.17,0.37,0.38c0,0.21-0.17,0.37-0.37,0.37c-0.21,0-0.37-0.17-0.37-0.37
		C79.83,21.64,79.99,21.48,80.2,21.48L80.2,21.48z"/>
	<path class="st0" d="M47.27,23.1c0.97,0,1.75,0.78,1.75,1.75c0,0.96-0.78,1.75-1.75,1.75c-0.96,0-1.74-0.78-1.74-1.75
		C45.52,23.88,46.3,23.1,47.27,23.1L47.27,23.1z"/>
	<path class="st0" d="M50.26,23.22c0.89,0,1.62,0.73,1.62,1.62c0,0.9-0.73,1.62-1.62,1.62c-0.89,0-1.62-0.73-1.62-1.62
		C48.64,23.95,49.37,23.22,50.26,23.22L50.26,23.22z"/>
	<path class="st0" d="M53.25,23.35c0.83,0,1.5,0.67,1.5,1.5c0,0.83-0.67,1.5-1.5,1.5c-0.82,0-1.49-0.67-1.49-1.5
		C51.76,24.02,52.43,23.35,53.25,23.35L53.25,23.35z"/>
	<path class="st0" d="M56.25,23.47c0.76,0,1.37,0.61,1.37,1.37c0,0.76-0.61,1.37-1.37,1.37c-0.76,0-1.37-0.61-1.37-1.37
		C54.88,24.09,55.49,23.47,56.25,23.47L56.25,23.47z"/>
	<path class="st0" d="M59.24,23.6c0.69,0,1.25,0.56,1.25,1.25c0,0.69-0.56,1.25-1.25,1.25c-0.69,0-1.25-0.56-1.25-1.25
		C57.99,24.16,58.55,23.6,59.24,23.6L59.24,23.6z"/>
	<path class="st0" d="M62.24,23.72c0.62,0,1.12,0.5,1.12,1.12c0,0.62-0.5,1.12-1.12,1.12c-0.62,0-1.12-0.5-1.12-1.12
		C61.11,24.22,61.62,23.72,62.24,23.72L62.24,23.72z"/>
	<path class="st0" d="M65.23,23.85c0.55,0,1,0.45,1,1c0,0.55-0.45,1-1,1c-0.55,0-1-0.44-1-1C64.23,24.29,64.68,23.85,65.23,23.85
		L65.23,23.85z"/>
	<path class="st0" d="M68.22,23.97c0.48,0,0.87,0.39,0.87,0.87c0,0.48-0.39,0.87-0.87,0.87c-0.48,0-0.87-0.39-0.87-0.87
		C67.35,24.36,67.74,23.97,68.22,23.97L68.22,23.97z"/>
	<path class="st0" d="M71.22,24.1c0.41,0,0.75,0.33,0.75,0.75c0,0.41-0.34,0.75-0.75,0.75c-0.41,0-0.75-0.34-0.75-0.75
		C70.47,24.43,70.81,24.1,71.22,24.1L71.22,24.1z"/>
	<path class="st0" d="M74.21,24.22c0.35,0,0.63,0.28,0.63,0.62c0,0.34-0.28,0.62-0.63,0.62c-0.34,0-0.62-0.28-0.62-0.62
		C73.59,24.5,73.87,24.22,74.21,24.22L74.21,24.22z"/>
	<path class="st0" d="M77.21,24.34c0.27,0,0.5,0.22,0.5,0.5c0,0.28-0.22,0.5-0.5,0.5c-0.28,0-0.5-0.22-0.5-0.5
		C76.71,24.57,76.93,24.34,77.21,24.34L77.21,24.34z"/>
	<path class="st0" d="M80.2,24.47c0.2,0,0.37,0.17,0.37,0.37c0,0.21-0.17,0.38-0.37,0.38c-0.21,0-0.37-0.17-0.37-0.38
		C79.83,24.64,79.99,24.47,80.2,24.47L80.2,24.47z"/>
	<path class="st0" d="M47.27,26.09c0.97,0,1.75,0.78,1.75,1.75c0,0.97-0.78,1.75-1.75,1.75c-0.96,0-1.74-0.78-1.74-1.75
		C45.52,26.87,46.3,26.09,47.27,26.09L47.27,26.09z"/>
	<path class="st0" d="M50.26,26.21c0.89,0,1.62,0.73,1.62,1.62c0,0.9-0.73,1.62-1.62,1.62c-0.89,0-1.62-0.73-1.62-1.62
		C48.64,26.94,49.37,26.21,50.26,26.21L50.26,26.21z"/>
	<path class="st0" d="M53.25,26.34c0.83,0,1.5,0.67,1.5,1.49c0,0.83-0.67,1.5-1.5,1.5c-0.82,0-1.49-0.67-1.49-1.5
		C51.76,27.01,52.43,26.34,53.25,26.34L53.25,26.34z"/>
	<path class="st0" d="M56.25,26.47c0.76,0,1.37,0.61,1.37,1.37c0,0.76-0.61,1.37-1.37,1.37c-0.76,0-1.37-0.61-1.37-1.37
		C54.88,27.08,55.49,26.47,56.25,26.47L56.25,26.47z"/>
	<path class="st0" d="M59.24,26.59c0.69,0,1.25,0.56,1.25,1.25c0,0.69-0.56,1.25-1.25,1.25c-0.69,0-1.25-0.56-1.25-1.25
		C57.99,27.15,58.55,26.59,59.24,26.59L59.24,26.59z"/>
	<path class="st0" d="M62.24,26.71c0.62,0,1.12,0.5,1.12,1.12c0,0.62-0.5,1.12-1.12,1.12c-0.62,0-1.12-0.5-1.12-1.12
		C61.11,27.22,61.62,26.71,62.24,26.71L62.24,26.71z"/>
	<path class="st0" d="M65.23,26.84c0.55,0,1,0.45,1,1c0,0.55-0.45,1-1,1c-0.55,0-1-0.45-1-1C64.23,27.29,64.68,26.84,65.23,26.84
		L65.23,26.84z"/>
	<path class="st0" d="M68.22,26.96c0.48,0,0.87,0.39,0.87,0.87c0,0.48-0.39,0.87-0.87,0.87c-0.48,0-0.87-0.39-0.87-0.87
		C67.35,27.36,67.74,26.96,68.22,26.96L68.22,26.96z"/>
	<path class="st0" d="M71.22,27.09c0.41,0,0.75,0.33,0.75,0.75c0,0.41-0.34,0.75-0.75,0.75c-0.41,0-0.75-0.33-0.75-0.75
		C70.47,27.42,70.81,27.09,71.22,27.09L71.22,27.09z"/>
	<path class="st0" d="M74.21,27.21c0.35,0,0.63,0.28,0.63,0.62c0,0.34-0.28,0.62-0.63,0.62c-0.34,0-0.62-0.28-0.62-0.62
		C73.59,27.49,73.87,27.21,74.21,27.21L74.21,27.21z"/>
	<path class="st0" d="M77.21,27.34c0.28,0,0.5,0.22,0.5,0.5c0,0.28-0.22,0.5-0.5,0.5s-0.5-0.22-0.5-0.5
		C76.71,27.56,76.93,27.34,77.21,27.34L77.21,27.34z"/>
	<path class="st0" d="M80.2,27.46c0.2,0,0.37,0.17,0.37,0.37c0,0.21-0.17,0.37-0.37,0.37c-0.21,0-0.37-0.16-0.37-0.37
		C79.83,27.63,79.99,27.46,80.2,27.46L80.2,27.46z"/>
	<path class="st0" d="M47.27,29.09c0.97,0,1.75,0.78,1.75,1.75c0,0.96-0.78,1.75-1.75,1.75c-0.96,0-1.74-0.78-1.74-1.75
		C45.52,29.87,46.3,29.09,47.27,29.09L47.27,29.09z"/>
	<path class="st0" d="M50.26,29.21c0.89,0,1.62,0.73,1.62,1.62c0,0.89-0.73,1.62-1.62,1.62c-0.89,0-1.62-0.73-1.62-1.62
		C48.64,29.94,49.37,29.21,50.26,29.21L50.26,29.21z"/>
	<path class="st0" d="M53.25,29.34c0.83,0,1.5,0.67,1.5,1.49c0,0.83-0.67,1.5-1.5,1.5c-0.82,0-1.49-0.67-1.49-1.5
		C51.76,30.01,52.43,29.34,53.25,29.34L53.25,29.34z"/>
	<path class="st0" d="M56.25,29.46c0.76,0,1.37,0.62,1.37,1.37c0,0.76-0.61,1.37-1.37,1.37c-0.76,0-1.37-0.61-1.37-1.37
		C54.88,30.08,55.49,29.46,56.25,29.46L56.25,29.46z"/>
	<path class="st0" d="M59.24,29.58c0.69,0,1.25,0.56,1.25,1.25c0,0.69-0.56,1.25-1.25,1.25c-0.69,0-1.25-0.56-1.25-1.25
		C57.99,30.14,58.55,29.58,59.24,29.58L59.24,29.58z"/>
	<path class="st0" d="M62.24,29.71c0.62,0,1.12,0.5,1.12,1.12c0,0.62-0.5,1.12-1.12,1.12c-0.62,0-1.12-0.5-1.12-1.12
		C61.11,30.21,61.62,29.71,62.24,29.71L62.24,29.71z"/>
	<path class="st0" d="M65.23,29.83c0.55,0,1,0.45,1,1c0,0.55-0.45,1-1,1c-0.55,0-1-0.45-1-1C64.23,30.28,64.68,29.83,65.23,29.83
		L65.23,29.83z"/>
	<path class="st0" d="M68.22,29.96c0.48,0,0.87,0.39,0.87,0.87c0,0.48-0.39,0.87-0.87,0.87c-0.48,0-0.87-0.39-0.87-0.87
		C67.35,30.35,67.74,29.96,68.22,29.96L68.22,29.96z"/>
	<path class="st0" d="M71.22,30.08c0.41,0,0.75,0.33,0.75,0.75c0,0.41-0.34,0.75-0.75,0.75c-0.41,0-0.75-0.34-0.75-0.75
		C70.47,30.42,70.81,30.08,71.22,30.08L71.22,30.08z"/>
	<path class="st0" d="M74.21,30.21c0.35,0,0.63,0.28,0.63,0.63c0,0.34-0.28,0.62-0.63,0.62c-0.34,0-0.62-0.28-0.62-0.62
		C73.59,30.49,73.87,30.21,74.21,30.21L74.21,30.21z"/>
	<path class="st0" d="M77.21,30.34c0.28,0,0.5,0.22,0.5,0.5c0,0.28-0.22,0.5-0.5,0.5s-0.5-0.22-0.5-0.5
		C76.71,30.56,76.93,30.34,77.21,30.34L77.21,30.34z"/>
	<path class="st0" d="M80.2,30.46c0.2,0,0.37,0.17,0.37,0.38c0,0.21-0.17,0.37-0.37,0.37c-0.21,0-0.37-0.17-0.37-0.37
		C79.83,30.62,79.99,30.46,80.2,30.46L80.2,30.46z"/>
	<path class="st0" d="M47.27,32.08c0.97,0,1.75,0.78,1.75,1.75c0,0.96-0.78,1.74-1.75,1.74c-0.96,0-1.74-0.78-1.74-1.74
		C45.52,32.86,46.3,32.08,47.27,32.08L47.27,32.08z"/>
	<path class="st0" d="M50.26,32.2c0.89,0,1.62,0.73,1.62,1.62c0,0.89-0.73,1.62-1.62,1.62c-0.89,0-1.62-0.73-1.62-1.62
		C48.64,32.93,49.37,32.2,50.26,32.2L50.26,32.2z"/>
	<path class="st0" d="M53.25,32.33c0.83,0,1.5,0.67,1.5,1.5c0,0.83-0.67,1.49-1.5,1.49c-0.82,0-1.49-0.67-1.49-1.49
		C51.76,33,52.43,32.33,53.25,32.33L53.25,32.33z"/>
	<path class="st0" d="M56.25,32.45c0.76,0,1.37,0.61,1.37,1.37c0,0.76-0.61,1.37-1.37,1.37c-0.76,0-1.37-0.61-1.37-1.37
		C54.88,33.07,55.49,32.45,56.25,32.45L56.25,32.45z"/>
	<path class="st0" d="M59.24,32.58c0.69,0,1.25,0.56,1.25,1.25c0,0.69-0.56,1.25-1.25,1.25c-0.69,0-1.25-0.56-1.25-1.25
		C57.99,33.14,58.55,32.58,59.24,32.58L59.24,32.58z"/>
	<path class="st0" d="M62.24,32.7c0.62,0,1.12,0.5,1.12,1.12c0,0.62-0.5,1.12-1.12,1.12c-0.62,0-1.12-0.5-1.12-1.12
		C61.11,33.21,61.62,32.7,62.24,32.7L62.24,32.7z"/>
	<path class="st0" d="M65.23,32.83c0.55,0,1,0.45,1,1c0,0.55-0.45,1-1,1c-0.55,0-1-0.45-1-1C64.23,33.27,64.68,32.83,65.23,32.83
		L65.23,32.83z"/>
	<path class="st0" d="M68.22,32.95c0.48,0,0.87,0.39,0.87,0.87c0,0.48-0.39,0.87-0.87,0.87c-0.48,0-0.87-0.39-0.87-0.87
		C67.35,33.34,67.74,32.95,68.22,32.95L68.22,32.95z"/>
	<path class="st0" d="M71.22,33.08c0.41,0,0.75,0.33,0.75,0.75c0,0.41-0.34,0.75-0.75,0.75c-0.41,0-0.75-0.34-0.75-0.75
		C70.47,33.41,70.81,33.08,71.22,33.08L71.22,33.08z"/>
	<path class="st0" d="M74.21,33.2c0.35,0,0.63,0.28,0.63,0.63c0,0.34-0.28,0.62-0.63,0.62c-0.34,0-0.62-0.28-0.62-0.62
		C73.59,33.48,73.87,33.2,74.21,33.2L74.21,33.2z"/>
	<path class="st0" d="M77.21,33.33c0.28,0,0.5,0.22,0.5,0.5c0,0.27-0.22,0.5-0.5,0.5s-0.5-0.22-0.5-0.5
		C76.71,33.55,76.93,33.33,77.21,33.33L77.21,33.33z"/>
	<path class="st0" d="M80.2,33.45c0.2,0,0.37,0.17,0.37,0.37c0,0.21-0.17,0.37-0.37,0.37c-0.21,0-0.37-0.17-0.37-0.37
		C79.83,33.62,79.99,33.45,80.2,33.45L80.2,33.45z"/>
	<path class="st0" d="M47.27,35.07c0.97,0,1.75,0.78,1.75,1.75c0,0.97-0.78,1.75-1.75,1.75c-0.96,0-1.74-0.78-1.74-1.75
		C45.52,35.86,46.3,35.07,47.27,35.07L47.27,35.07z"/>
	<path class="st0" d="M50.26,35.2c0.89,0,1.62,0.73,1.62,1.62c0,0.9-0.73,1.62-1.62,1.62c-0.9,0-1.62-0.73-1.62-1.62
		C48.64,35.93,49.36,35.2,50.26,35.2L50.26,35.2z"/>
	<path class="st0" d="M53.25,35.32c0.83,0,1.5,0.67,1.5,1.5c0,0.83-0.67,1.5-1.5,1.5c-0.82,0-1.49-0.67-1.49-1.5
		C51.76,36,52.43,35.32,53.25,35.32L53.25,35.32z"/>
	<path class="st0" d="M56.25,35.45c0.76,0,1.37,0.62,1.37,1.37c0,0.76-0.61,1.37-1.37,1.37c-0.76,0-1.37-0.61-1.37-1.37
		C54.88,36.06,55.49,35.45,56.25,35.45L56.25,35.45z"/>
	<path class="st0" d="M59.24,35.57c0.69,0,1.25,0.56,1.25,1.25c0,0.69-0.56,1.25-1.25,1.25c-0.69,0-1.25-0.56-1.25-1.25
		C57.99,36.13,58.55,35.57,59.24,35.57L59.24,35.57z"/>
	<path class="st0" d="M62.24,35.7c0.62,0,1.12,0.5,1.12,1.12c0,0.62-0.5,1.12-1.12,1.12c-0.62,0-1.12-0.5-1.12-1.12
		C61.11,36.2,61.62,35.7,62.24,35.7L62.24,35.7z"/>
	<path class="st0" d="M65.23,35.82c0.55,0,1,0.45,1,1c0,0.55-0.45,1-1,1c-0.55,0-1-0.45-1-1C64.23,36.27,64.68,35.82,65.23,35.82
		L65.23,35.82z"/>
	<path class="st0" d="M68.22,35.95c0.48,0,0.87,0.39,0.87,0.87c0,0.48-0.39,0.87-0.87,0.87c-0.48,0-0.87-0.39-0.87-0.87
		C67.35,36.34,67.74,35.95,68.22,35.95L68.22,35.95z"/>
	<path class="st0" d="M71.22,36.07c0.41,0,0.75,0.33,0.75,0.75c0,0.42-0.34,0.75-0.75,0.75c-0.41,0-0.75-0.33-0.75-0.75
		C70.47,36.41,70.81,36.07,71.22,36.07L71.22,36.07z"/>
	<path class="st0" d="M74.21,36.2c0.35,0,0.63,0.28,0.63,0.62c0,0.35-0.28,0.63-0.63,0.63c-0.34,0-0.62-0.28-0.62-0.63
		C73.59,36.48,73.87,36.2,74.21,36.2L74.21,36.2z"/>
	<path class="st0" d="M77.21,36.32c0.28,0,0.5,0.23,0.5,0.5c0,0.28-0.22,0.5-0.5,0.5s-0.5-0.22-0.5-0.5
		C76.71,36.55,76.93,36.32,77.21,36.32L77.21,36.32z"/>
	<path class="st0" d="M80.2,36.45c0.2,0,0.37,0.17,0.37,0.37c0,0.21-0.17,0.38-0.37,0.38c-0.21,0-0.37-0.17-0.37-0.38
		C79.83,36.61,79.99,36.45,80.2,36.45L80.2,36.45z"/>
	<path class="st0" d="M38.09,17.11c-0.96,0-1.75,0.78-1.75,1.75c0,0.97,0.78,1.75,1.75,1.75c0.97,0,1.75-0.78,1.75-1.75
		C39.83,17.89,39.05,17.11,38.09,17.11L38.09,17.11z"/>
	<path class="st0" d="M35.09,17.23c-0.89,0-1.62,0.73-1.62,1.62c0,0.9,0.73,1.62,1.62,1.62c0.9,0,1.62-0.73,1.62-1.62
		C36.71,17.96,35.99,17.23,35.09,17.23L35.09,17.23z"/>
	<path class="st0" d="M32.1,17.36c-0.83,0-1.5,0.67-1.5,1.5c0,0.83,0.67,1.5,1.5,1.5c0.83,0,1.5-0.67,1.5-1.5
		C33.6,18.03,32.93,17.36,32.1,17.36L32.1,17.36z"/>
	<path class="st0" d="M29.1,17.48c-0.76,0-1.37,0.61-1.37,1.37c0,0.76,0.61,1.37,1.37,1.37c0.76,0,1.37-0.61,1.37-1.37
		C30.48,18.1,29.86,17.48,29.1,17.48L29.1,17.48z"/>
	<path class="st0" d="M26.11,17.61c-0.69,0-1.25,0.56-1.25,1.25c0,0.69,0.56,1.25,1.25,1.25c0.69,0,1.25-0.56,1.25-1.25
		C27.36,18.17,26.8,17.61,26.11,17.61L26.11,17.61z"/>
	<path class="st0" d="M23.11,17.73c-0.62,0-1.12,0.5-1.12,1.12c0,0.62,0.5,1.12,1.12,1.12c0.62,0,1.12-0.5,1.12-1.12
		C24.24,18.24,23.74,17.73,23.11,17.73L23.11,17.73z"/>
	<path class="st0" d="M20.12,17.86c-0.55,0-1,0.45-1,1c0,0.55,0.45,1,1,1c0.55,0,1-0.45,1-1C21.12,18.31,20.67,17.86,20.12,17.86
		L20.12,17.86z"/>
	<path class="st0" d="M17.13,17.98c-0.48,0-0.87,0.39-0.87,0.87c0,0.48,0.39,0.87,0.87,0.87c0.48,0,0.87-0.39,0.87-0.87
		C18,18.37,17.61,17.98,17.13,17.98L17.13,17.98z"/>
	<path class="st0" d="M14.13,18.11c-0.41,0-0.75,0.33-0.75,0.75c0,0.42,0.33,0.75,0.75,0.75c0.41,0,0.75-0.33,0.75-0.75
		C14.88,18.44,14.55,18.11,14.13,18.11L14.13,18.11z"/>
	<path class="st0" d="M11.14,18.23c-0.35,0-0.62,0.28-0.62,0.62c0,0.35,0.28,0.63,0.62,0.63c0.34,0,0.62-0.28,0.62-0.63
		C11.76,18.51,11.48,18.23,11.14,18.23L11.14,18.23z"/>
	<path class="st0" d="M8.14,18.36c-0.27,0-0.5,0.22-0.5,0.5c0,0.28,0.22,0.5,0.5,0.5c0.28,0,0.5-0.22,0.5-0.5
		C8.64,18.58,8.42,18.36,8.14,18.36L8.14,18.36z"/>
	<path class="st0" d="M5.15,18.48c-0.21,0-0.37,0.17-0.37,0.37c0,0.21,0.17,0.38,0.37,0.38c0.21,0,0.38-0.17,0.38-0.38
		C5.53,18.65,5.36,18.48,5.15,18.48L5.15,18.48z"/>
	<path class="st0" d="M38.09,20.1c-0.96,0-1.75,0.78-1.75,1.75c0,0.96,0.78,1.75,1.75,1.75c0.96,0,1.75-0.78,1.75-1.75
		C39.83,20.88,39.05,20.1,38.09,20.1L38.09,20.1z"/>
	<path class="st0" d="M35.09,20.23c-0.89,0-1.62,0.73-1.62,1.62c0,0.9,0.73,1.62,1.62,1.62c0.9,0,1.62-0.73,1.62-1.62
		C36.71,20.95,35.99,20.23,35.09,20.23L35.09,20.23z"/>
	<path class="st0" d="M32.1,20.35c-0.83,0-1.5,0.67-1.5,1.5c0,0.83,0.67,1.49,1.5,1.49c0.83,0,1.5-0.67,1.5-1.49
		C33.6,21.02,32.93,20.35,32.1,20.35L32.1,20.35z"/>
	<path class="st0" d="M29.1,20.48c-0.76,0-1.37,0.61-1.37,1.37c0,0.76,0.61,1.37,1.37,1.37c0.76,0,1.37-0.61,1.37-1.37
		C30.48,21.09,29.86,20.48,29.1,20.48L29.1,20.48z"/>
	<path class="st0" d="M26.11,20.6c-0.69,0-1.25,0.56-1.25,1.25c0,0.69,0.56,1.25,1.25,1.25c0.69,0,1.25-0.56,1.25-1.25
		C27.36,21.16,26.8,20.6,26.11,20.6L26.11,20.6z"/>
	<path class="st0" d="M23.11,20.73c-0.62,0-1.12,0.5-1.12,1.13c0,0.62,0.5,1.12,1.12,1.12c0.62,0,1.12-0.5,1.12-1.12
		C24.24,21.23,23.74,20.73,23.11,20.73L23.11,20.73z"/>
	<path class="st0" d="M20.12,20.85c-0.55,0-1,0.45-1,1c0,0.55,0.45,1,1,1c0.55,0,1-0.45,1-1C21.12,21.3,20.67,20.85,20.12,20.85
		L20.12,20.85z"/>
	<path class="st0" d="M17.13,20.98c-0.48,0-0.87,0.39-0.87,0.87c0,0.48,0.39,0.87,0.87,0.87c0.48,0,0.87-0.39,0.87-0.87
		C18,21.37,17.61,20.98,17.13,20.98L17.13,20.98z"/>
	<path class="st0" d="M14.13,21.1c-0.41,0-0.75,0.33-0.75,0.75c0,0.41,0.33,0.75,0.75,0.75c0.41,0,0.75-0.34,0.75-0.75
		C14.88,21.43,14.55,21.1,14.13,21.1L14.13,21.1z"/>
	<path class="st0" d="M11.14,21.23c-0.35,0-0.62,0.28-0.62,0.62c0,0.34,0.28,0.62,0.62,0.62c0.34,0,0.62-0.28,0.62-0.62
		C11.76,21.5,11.48,21.23,11.14,21.23L11.14,21.23z"/>
	<path class="st0" d="M8.14,21.35c-0.27,0-0.5,0.22-0.5,0.5c0,0.28,0.22,0.5,0.5,0.5c0.28,0,0.5-0.22,0.5-0.5
		C8.64,21.57,8.42,21.35,8.14,21.35L8.14,21.35z"/>
	<path class="st0" d="M5.15,21.48c-0.21,0-0.37,0.17-0.37,0.38c0,0.21,0.17,0.37,0.37,0.37c0.21,0,0.38-0.17,0.38-0.37
		C5.53,21.64,5.36,21.48,5.15,21.48L5.15,21.48z"/>
	<path class="st0" d="M38.09,23.1c-0.96,0-1.75,0.78-1.75,1.75c0,0.96,0.78,1.75,1.75,1.75c0.96,0,1.75-0.78,1.75-1.75
		C39.83,23.88,39.05,23.1,38.09,23.1L38.09,23.1z"/>
	<path class="st0" d="M35.09,23.22c-0.89,0-1.62,0.73-1.62,1.62c0,0.9,0.73,1.62,1.62,1.62c0.9,0,1.62-0.73,1.62-1.62
		C36.71,23.95,35.99,23.22,35.09,23.22L35.09,23.22z"/>
	<path class="st0" d="M32.1,23.35c-0.83,0-1.5,0.67-1.5,1.5c0,0.83,0.67,1.5,1.5,1.5c0.83,0,1.5-0.67,1.5-1.5
		C33.6,24.02,32.93,23.35,32.1,23.35L32.1,23.35z"/>
	<path class="st0" d="M29.1,23.47c-0.76,0-1.37,0.61-1.37,1.37c0,0.76,0.61,1.37,1.37,1.37c0.76,0,1.37-0.61,1.37-1.37
		C30.48,24.09,29.86,23.47,29.1,23.47L29.1,23.47z"/>
	<path class="st0" d="M26.11,23.6c-0.69,0-1.25,0.56-1.25,1.25c0,0.69,0.56,1.25,1.25,1.25c0.69,0,1.25-0.56,1.25-1.25
		C27.36,24.16,26.8,23.6,26.11,23.6L26.11,23.6z"/>
	<path class="st0" d="M23.12,23.72c-0.62,0-1.12,0.5-1.12,1.12c0,0.62,0.5,1.12,1.12,1.12c0.62,0,1.12-0.5,1.12-1.12
		C24.24,24.22,23.74,23.72,23.12,23.72L23.12,23.72z"/>
	<path class="st0" d="M20.12,23.85c-0.55,0-1,0.45-1,1c0,0.55,0.45,1,1,1c0.55,0,1-0.44,1-1C21.12,24.29,20.67,23.85,20.12,23.85
		L20.12,23.85z"/>
	<path class="st0" d="M17.13,23.97c-0.48,0-0.87,0.39-0.87,0.87c0,0.48,0.39,0.87,0.87,0.87c0.48,0,0.87-0.39,0.87-0.87
		C18,24.36,17.61,23.97,17.13,23.97L17.13,23.97z"/>
	<path class="st0" d="M14.13,24.1c-0.41,0-0.75,0.33-0.75,0.75c0,0.41,0.33,0.75,0.75,0.75c0.41,0,0.75-0.34,0.75-0.75
		C14.88,24.43,14.55,24.1,14.13,24.1L14.13,24.1z"/>
	<path class="st0" d="M11.14,24.22c-0.35,0-0.62,0.28-0.62,0.62c0,0.34,0.28,0.62,0.62,0.62c0.34,0,0.62-0.28,0.62-0.62
		C11.76,24.5,11.48,24.22,11.14,24.22L11.14,24.22z"/>
	<path class="st0" d="M8.14,24.34c-0.27,0-0.5,0.22-0.5,0.5c0,0.28,0.22,0.5,0.5,0.5c0.28,0,0.5-0.22,0.5-0.5
		C8.64,24.57,8.42,24.34,8.14,24.34L8.14,24.34z"/>
	<path class="st0" d="M5.15,24.47c-0.2,0-0.37,0.17-0.37,0.37c0,0.21,0.17,0.38,0.37,0.38c0.21,0,0.38-0.17,0.38-0.38
		C5.53,24.64,5.36,24.47,5.15,24.47L5.15,24.47z"/>
	<path class="st0" d="M38.09,26.09c-0.96,0-1.75,0.78-1.75,1.75c0,0.97,0.78,1.75,1.75,1.75c0.96,0,1.75-0.78,1.75-1.75
		C39.83,26.87,39.05,26.09,38.09,26.09L38.09,26.09z"/>
	<path class="st0" d="M35.09,26.21c-0.89,0-1.62,0.73-1.62,1.62c0,0.9,0.73,1.62,1.62,1.62c0.9,0,1.62-0.73,1.62-1.62
		C36.71,26.94,35.99,26.21,35.09,26.21L35.09,26.21z"/>
	<path class="st0" d="M32.1,26.34c-0.83,0-1.5,0.67-1.5,1.49c0,0.83,0.67,1.5,1.5,1.5c0.83,0,1.5-0.67,1.5-1.5
		C33.6,27.01,32.93,26.34,32.1,26.34L32.1,26.34z"/>
	<path class="st0" d="M29.1,26.47c-0.76,0-1.37,0.61-1.37,1.37c0,0.76,0.61,1.37,1.37,1.37c0.76,0,1.37-0.61,1.37-1.37
		C30.48,27.08,29.86,26.47,29.1,26.47L29.1,26.47z"/>
	<path class="st0" d="M26.11,26.59c-0.69,0-1.25,0.56-1.25,1.25c0,0.69,0.56,1.25,1.25,1.25c0.69,0,1.25-0.56,1.25-1.25
		C27.36,27.15,26.8,26.59,26.11,26.59L26.11,26.59z"/>
	<path class="st0" d="M23.12,26.71c-0.62,0-1.12,0.5-1.12,1.12c0,0.62,0.5,1.12,1.12,1.12c0.62,0,1.12-0.5,1.12-1.12
		C24.24,27.22,23.74,26.71,23.12,26.71L23.12,26.71z"/>
	<path class="st0" d="M20.12,26.84c-0.55,0-1,0.45-1,1c0,0.55,0.45,1,1,1c0.55,0,1-0.45,1-1C21.12,27.29,20.67,26.84,20.12,26.84
		L20.12,26.84z"/>
	<path class="st0" d="M17.13,26.96c-0.48,0-0.87,0.39-0.87,0.87c0,0.48,0.39,0.87,0.87,0.87c0.48,0,0.87-0.39,0.87-0.87
		C18,27.36,17.61,26.96,17.13,26.96L17.13,26.96z"/>
	<path class="st0" d="M14.13,27.09c-0.41,0-0.75,0.33-0.75,0.75c0,0.41,0.33,0.75,0.75,0.75c0.41,0,0.75-0.33,0.75-0.75
		C14.88,27.42,14.55,27.09,14.13,27.09L14.13,27.09z"/>
	<path class="st0" d="M11.14,27.21c-0.35,0-0.62,0.28-0.62,0.62c0,0.34,0.28,0.62,0.62,0.62c0.34,0,0.62-0.28,0.62-0.62
		C11.76,27.49,11.48,27.21,11.14,27.21L11.14,27.21z"/>
	<path class="st0" d="M8.14,27.34c-0.28,0-0.5,0.22-0.5,0.5c0,0.28,0.22,0.5,0.5,0.5c0.28,0,0.5-0.22,0.5-0.5
		C8.64,27.56,8.42,27.34,8.14,27.34L8.14,27.34z"/>
	<path class="st0" d="M5.15,27.46c-0.2,0-0.37,0.17-0.37,0.37c0,0.21,0.17,0.37,0.37,0.37c0.21,0,0.38-0.16,0.38-0.37
		C5.53,27.63,5.36,27.46,5.15,27.46L5.15,27.46z"/>
	<path class="st0" d="M38.09,29.09c-0.96,0-1.75,0.78-1.75,1.75c0,0.96,0.78,1.75,1.75,1.75c0.96,0,1.75-0.78,1.75-1.75
		C39.83,29.87,39.05,29.09,38.09,29.09L38.09,29.09z"/>
	<path class="st0" d="M35.09,29.21c-0.89,0-1.62,0.73-1.62,1.62c0,0.89,0.73,1.62,1.62,1.62c0.9,0,1.62-0.73,1.62-1.62
		C36.71,29.94,35.99,29.21,35.09,29.21L35.09,29.21z"/>
	<path class="st0" d="M32.1,29.34c-0.83,0-1.5,0.67-1.5,1.49c0,0.83,0.67,1.5,1.5,1.5c0.83,0,1.5-0.67,1.5-1.5
		C33.6,30.01,32.93,29.34,32.1,29.34L32.1,29.34z"/>
	<path class="st0" d="M29.1,29.46c-0.76,0-1.37,0.62-1.37,1.37c0,0.76,0.61,1.37,1.37,1.37c0.76,0,1.37-0.61,1.37-1.37
		C30.48,30.08,29.86,29.46,29.1,29.46L29.1,29.46z"/>
	<path class="st0" d="M26.11,29.58c-0.69,0-1.25,0.56-1.25,1.25c0,0.69,0.56,1.25,1.25,1.25c0.69,0,1.25-0.56,1.25-1.25
		C27.36,30.14,26.8,29.58,26.11,29.58L26.11,29.58z"/>
	<path class="st0" d="M23.12,29.71c-0.62,0-1.12,0.5-1.12,1.12c0,0.62,0.5,1.12,1.12,1.12c0.62,0,1.12-0.5,1.12-1.12
		C24.24,30.21,23.74,29.71,23.12,29.71L23.12,29.71z"/>
	<path class="st0" d="M20.12,29.83c-0.55,0-1,0.45-1,1c0,0.55,0.45,1,1,1c0.55,0,1-0.45,1-1C21.12,30.28,20.67,29.83,20.12,29.83
		L20.12,29.83z"/>
	<path class="st0" d="M17.13,29.96c-0.48,0-0.87,0.39-0.87,0.87c0,0.48,0.39,0.87,0.87,0.87c0.48,0,0.87-0.39,0.87-0.87
		C18,30.35,17.61,29.96,17.13,29.96L17.13,29.96z"/>
	<path class="st0" d="M14.13,30.08c-0.41,0-0.75,0.33-0.75,0.75c0,0.41,0.34,0.75,0.75,0.75c0.41,0,0.75-0.34,0.75-0.75
		C14.88,30.42,14.55,30.08,14.13,30.08L14.13,30.08z"/>
	<path class="st0" d="M11.14,30.21c-0.35,0-0.62,0.28-0.62,0.63c0,0.34,0.28,0.62,0.62,0.62c0.34,0,0.62-0.28,0.62-0.62
		C11.76,30.49,11.48,30.21,11.14,30.21L11.14,30.21z"/>
	<path class="st0" d="M8.14,30.34c-0.28,0-0.5,0.22-0.5,0.5c0,0.28,0.22,0.5,0.5,0.5c0.28,0,0.5-0.22,0.5-0.5
		C8.64,30.56,8.42,30.34,8.14,30.34L8.14,30.34z"/>
	<path class="st0" d="M5.15,30.46c-0.2,0-0.37,0.17-0.37,0.38c0,0.21,0.17,0.37,0.37,0.37c0.21,0,0.38-0.17,0.38-0.37
		C5.53,30.62,5.36,30.46,5.15,30.46L5.15,30.46z"/>
	<path class="st0" d="M38.09,32.08c-0.96,0-1.75,0.78-1.75,1.75c0,0.96,0.78,1.74,1.75,1.74c0.96,0,1.75-0.78,1.75-1.74
		C39.83,32.86,39.05,32.08,38.09,32.08L38.09,32.08z"/>
	<path class="st0" d="M35.09,32.2c-0.89,0-1.62,0.73-1.62,1.62c0,0.89,0.73,1.62,1.62,1.62c0.9,0,1.62-0.73,1.62-1.62
		C36.71,32.93,35.99,32.2,35.09,32.2L35.09,32.2z"/>
	<path class="st0" d="M32.1,32.33c-0.83,0-1.5,0.67-1.5,1.5c0,0.83,0.67,1.49,1.5,1.49c0.83,0,1.5-0.67,1.5-1.49
		C33.6,33,32.93,32.33,32.1,32.33L32.1,32.33z"/>
	<path class="st0" d="M29.1,32.45c-0.76,0-1.37,0.61-1.37,1.37c0,0.76,0.61,1.37,1.37,1.37c0.76,0,1.37-0.61,1.37-1.37
		C30.48,33.07,29.86,32.45,29.1,32.45L29.1,32.45z"/>
	<path class="st0" d="M26.11,32.58c-0.69,0-1.25,0.56-1.25,1.25c0,0.69,0.56,1.25,1.25,1.25c0.69,0,1.25-0.56,1.25-1.25
		C27.36,33.14,26.8,32.58,26.11,32.58L26.11,32.58z"/>
	<path class="st0" d="M23.12,32.7c-0.62,0-1.12,0.5-1.12,1.12c0,0.62,0.5,1.12,1.12,1.12c0.62,0,1.12-0.5,1.12-1.12
		C24.24,33.21,23.74,32.7,23.12,32.7L23.12,32.7z"/>
	<path class="st0" d="M20.12,32.83c-0.55,0-1,0.45-1,1c0,0.55,0.45,1,1,1c0.55,0,1-0.45,1-1C21.12,33.27,20.67,32.83,20.12,32.83
		L20.12,32.83z"/>
	<path class="st0" d="M17.13,32.95c-0.48,0-0.87,0.39-0.87,0.87c0,0.48,0.39,0.87,0.87,0.87c0.48,0,0.87-0.39,0.87-0.87
		C18,33.34,17.61,32.95,17.13,32.95L17.13,32.95z"/>
	<path class="st0" d="M14.13,33.08c-0.41,0-0.75,0.33-0.75,0.75c0,0.41,0.34,0.75,0.75,0.75c0.41,0,0.75-0.34,0.75-0.75
		C14.88,33.41,14.55,33.08,14.13,33.08L14.13,33.08z"/>
	<path class="st0" d="M11.14,33.2c-0.34,0-0.62,0.28-0.62,0.63c0,0.34,0.28,0.62,0.62,0.62c0.34,0,0.62-0.28,0.62-0.62
		C11.76,33.48,11.48,33.2,11.14,33.2L11.14,33.2z"/>
	<path class="st0" d="M8.14,33.33c-0.28,0-0.5,0.22-0.5,0.5c0,0.27,0.22,0.5,0.5,0.5c0.28,0,0.5-0.22,0.5-0.5
		C8.64,33.55,8.42,33.33,8.14,33.33L8.14,33.33z"/>
	<path class="st0" d="M5.15,33.45c-0.2,0-0.37,0.17-0.37,0.37c0,0.21,0.17,0.37,0.37,0.37c0.21,0,0.38-0.17,0.38-0.37
		C5.53,33.62,5.36,33.45,5.15,33.45L5.15,33.45z"/>
	<path class="st0" d="M38.09,35.07c-0.96,0-1.75,0.78-1.75,1.75c0,0.97,0.78,1.75,1.75,1.75c0.96,0,1.75-0.78,1.75-1.75
		C39.83,35.86,39.05,35.07,38.09,35.07L38.09,35.07z"/>
	<path class="st0" d="M35.09,35.2c-0.89,0-1.62,0.73-1.62,1.62c0,0.9,0.73,1.62,1.62,1.62c0.9,0,1.62-0.73,1.62-1.62
		C36.71,35.93,35.99,35.2,35.09,35.2L35.09,35.2z"/>
	<path class="st0" d="M32.1,35.32c-0.83,0-1.5,0.67-1.5,1.5c0,0.83,0.67,1.5,1.5,1.5c0.83,0,1.5-0.67,1.5-1.5
		C33.6,36,32.93,35.32,32.1,35.32L32.1,35.32z"/>
	<path class="st0" d="M29.1,35.45c-0.76,0-1.37,0.62-1.37,1.37c0,0.76,0.61,1.37,1.37,1.37c0.76,0,1.37-0.61,1.37-1.37
		C30.48,36.06,29.86,35.45,29.1,35.45L29.1,35.45z"/>
	<path class="st0" d="M26.11,35.57c-0.69,0-1.25,0.56-1.25,1.25c0,0.69,0.56,1.25,1.25,1.25c0.69,0,1.25-0.56,1.25-1.25
		C27.36,36.13,26.8,35.57,26.11,35.57L26.11,35.57z"/>
	<path class="st0" d="M23.12,35.7c-0.62,0-1.12,0.5-1.12,1.12c0,0.62,0.5,1.12,1.12,1.12c0.62,0,1.12-0.5,1.12-1.12
		C24.24,36.2,23.74,35.7,23.12,35.7L23.12,35.7z"/>
	<path class="st0" d="M20.12,35.82c-0.55,0-1,0.45-1,1c0,0.55,0.44,1,1,1c0.55,0,1-0.45,1-1C21.12,36.27,20.67,35.82,20.12,35.82
		L20.12,35.82z"/>
	<path class="st0" d="M17.13,35.95c-0.48,0-0.87,0.39-0.87,0.87c0,0.48,0.39,0.87,0.87,0.87c0.48,0,0.87-0.39,0.87-0.87
		C18,36.34,17.61,35.95,17.13,35.95L17.13,35.95z"/>
	<path class="st0" d="M14.13,36.07c-0.41,0-0.75,0.33-0.75,0.75c0,0.42,0.34,0.75,0.75,0.75c0.41,0,0.75-0.33,0.75-0.75
		C14.88,36.41,14.55,36.07,14.13,36.07L14.13,36.07z"/>
	<path class="st0" d="M11.14,36.2c-0.34,0-0.62,0.28-0.62,0.62c0,0.35,0.28,0.63,0.62,0.63c0.35,0,0.62-0.28,0.62-0.63
		C11.76,36.48,11.48,36.2,11.14,36.2L11.14,36.2z"/>
	<path class="st0" d="M8.14,36.32c-0.28,0-0.5,0.23-0.5,0.5c0,0.28,0.22,0.5,0.5,0.5c0.28,0,0.5-0.22,0.5-0.5
		C8.64,36.55,8.42,36.32,8.14,36.32L8.14,36.32z"/>
	<path class="st0" d="M5.15,36.45c-0.2,0-0.37,0.17-0.37,0.37c0,0.21,0.17,0.38,0.37,0.38c0.21,0,0.38-0.17,0.38-0.38
		C5.53,36.61,5.36,36.45,5.15,36.45L5.15,36.45z"/>
	<g>
		<defs>
			<polygon id="SVGID_1_" points="44.33,39.93 84.68,39.93 84.68,15.77 44.33,15.77 44.33,39.93 			"/>
		</defs>
		<clipPath id="SVGID_2_">
			<use xlink:href="#SVGID_1_"  style="overflow:visible;"/>
		</clipPath>
		<path class="st2" d="M83.19,36.57c0.14,0,0.25,0.11,0.25,0.25c0,0.14-0.11,0.25-0.25,0.25c-0.14,0-0.25-0.11-0.25-0.25
			C82.95,36.68,83.06,36.57,83.19,36.57L83.19,36.57z"/>
		<path class="st2" d="M44.27,34.95c1.03,0,1.87,0.84,1.87,1.87c0,1.04-0.84,1.87-1.87,1.87c-1.04,0-1.87-0.84-1.87-1.87
			C42.4,35.79,43.24,34.95,44.27,34.95L44.27,34.95z"/>
		<path class="st2" d="M47.27,38.07c0.97,0,1.75,0.78,1.75,1.75c0,0.96-0.78,1.75-1.75,1.75c-0.96,0-1.74-0.78-1.74-1.75
			C45.52,38.85,46.3,38.07,47.27,38.07L47.27,38.07z"/>
		<path class="st2" d="M50.26,38.19c0.89,0,1.62,0.73,1.62,1.62c0,0.89-0.73,1.62-1.62,1.62c-0.9,0-1.62-0.73-1.62-1.62
			C48.64,38.92,49.36,38.19,50.26,38.19L50.26,38.19z"/>
		<path class="st2" d="M53.25,38.32c0.83,0,1.5,0.67,1.5,1.5c0,0.83-0.67,1.5-1.5,1.5c-0.82,0-1.49-0.67-1.49-1.5
			C51.76,38.99,52.43,38.32,53.25,38.32L53.25,38.32z"/>
		<path class="st2" d="M56.25,38.44c0.76,0,1.37,0.61,1.37,1.37c0,0.76-0.61,1.37-1.37,1.37c-0.76,0-1.37-0.61-1.37-1.37
			C54.88,39.06,55.49,38.44,56.25,38.44L56.25,38.44z"/>
		<path class="st2" d="M59.24,38.57c0.69,0,1.25,0.56,1.25,1.25c0,0.69-0.56,1.25-1.25,1.25c-0.69,0-1.25-0.56-1.25-1.25
			C57.99,39.13,58.55,38.57,59.24,38.57L59.24,38.57z"/>
		<path class="st2" d="M62.24,38.69c0.62,0,1.12,0.5,1.12,1.12c0,0.62-0.5,1.12-1.12,1.12c-0.62,0-1.12-0.5-1.12-1.12
			C61.11,39.2,61.62,38.69,62.24,38.69L62.24,38.69z"/>
		<path class="st2" d="M65.23,38.82c0.55,0,1,0.45,1,1c0,0.55-0.45,1-1,1c-0.55,0-1-0.45-1-1C64.23,39.26,64.68,38.82,65.23,38.82
			L65.23,38.82z"/>
		<path class="st2" d="M68.22,38.94c0.48,0,0.87,0.39,0.87,0.87c0,0.48-0.39,0.87-0.87,0.87c-0.48,0-0.87-0.39-0.87-0.87
			C67.35,39.33,67.74,38.94,68.22,38.94L68.22,38.94z"/>
		<path class="st2" d="M71.22,39.07c0.41,0,0.75,0.33,0.75,0.75c0,0.41-0.34,0.75-0.75,0.75c-0.41,0-0.75-0.34-0.75-0.75
			C70.47,39.4,70.81,39.07,71.22,39.07L71.22,39.07z"/>
		<path class="st2" d="M74.21,39.19c0.35,0,0.63,0.28,0.63,0.62c0,0.34-0.28,0.62-0.63,0.62c-0.34,0-0.62-0.28-0.62-0.62
			C73.59,39.47,73.87,39.19,74.21,39.19L74.21,39.19z"/>
		<path class="st2" d="M77.21,39.32c0.28,0,0.5,0.22,0.5,0.5c0,0.28-0.22,0.5-0.5,0.5s-0.5-0.22-0.5-0.5
			C76.71,39.54,76.93,39.32,77.21,39.32L77.21,39.32z"/>
		<path class="st2" d="M80.2,39.44c0.2,0,0.37,0.17,0.37,0.37c0,0.21-0.17,0.37-0.37,0.37c-0.21,0-0.37-0.17-0.37-0.37
			C79.83,39.61,79.99,39.44,80.2,39.44L80.2,39.44z"/>
		<path class="st2" d="M83.19,39.57c0.14,0,0.25,0.11,0.25,0.25c0,0.14-0.11,0.25-0.25,0.25c-0.14,0-0.25-0.11-0.25-0.25
			C82.95,39.68,83.06,39.57,83.19,39.57L83.19,39.57z"/>
		<path class="st2" d="M44.27,37.94c1.03,0,1.87,0.84,1.87,1.87c0,1.03-0.84,1.87-1.87,1.87c-1.04,0-1.87-0.84-1.87-1.87
			C42.4,38.78,43.24,37.94,44.27,37.94L44.27,37.94z"/>
	</g>
	<g>
		<defs>
			<polygon id="SVGID_3_" points="44.33,39.93 84.68,39.93 84.68,15.77 44.33,15.77 44.33,39.93 			"/>
		</defs>
		<clipPath id="SVGID_4_">
			<use xlink:href="#SVGID_3_"  style="overflow:visible;"/>
		</clipPath>
		<path class="st3" d="M83.19,33.58c0.14,0,0.25,0.11,0.25,0.25c0,0.14-0.11,0.25-0.25,0.25c-0.14,0-0.25-0.11-0.25-0.25
			C82.95,33.69,83.06,33.58,83.19,33.58L83.19,33.58z"/>
		<path class="st3" d="M44.27,31.96c1.03,0,1.87,0.84,1.87,1.87c0,1.03-0.84,1.87-1.87,1.87c-1.04,0-1.87-0.84-1.87-1.87
			C42.4,32.79,43.24,31.96,44.27,31.96L44.27,31.96z"/>
	</g>
	<g>
		<defs>
			<polygon id="SVGID_5_" points="44.33,39.93 84.68,39.93 84.68,15.77 44.33,15.77 44.33,39.93 			"/>
		</defs>
		<clipPath id="SVGID_6_">
			<use xlink:href="#SVGID_5_"  style="overflow:visible;"/>
		</clipPath>
		<path class="st4" d="M83.19,30.58c0.14,0,0.25,0.11,0.25,0.25c0,0.14-0.11,0.25-0.25,0.25c-0.14,0-0.25-0.11-0.25-0.25
			C82.95,30.69,83.06,30.58,83.19,30.58L83.19,30.58z"/>
		<path class="st4" d="M44.27,28.96c1.03,0,1.87,0.84,1.87,1.87c0,1.03-0.84,1.87-1.87,1.87c-1.04,0-1.87-0.84-1.87-1.87
			C42.4,29.8,43.24,28.96,44.27,28.96L44.27,28.96z"/>
	</g>
	<g>
		<defs>
			<polygon id="SVGID_7_" points="44.33,39.93 84.68,39.93 84.68,15.77 44.33,15.77 44.33,39.93 			"/>
		</defs>
		<clipPath id="SVGID_8_">
			<use xlink:href="#SVGID_7_"  style="overflow:visible;"/>
		</clipPath>
		<path class="st5" d="M83.19,27.59c0.14,0,0.25,0.11,0.25,0.25c0,0.14-0.11,0.25-0.25,0.25c-0.14,0-0.25-0.11-0.25-0.25
			C82.95,27.7,83.06,27.59,83.19,27.59L83.19,27.59z"/>
		<path class="st5" d="M44.27,25.97c1.03,0,1.87,0.84,1.87,1.87c0,1.03-0.84,1.87-1.87,1.87c-1.03,0-1.87-0.84-1.87-1.87
			C42.4,26.8,43.24,25.97,44.27,25.97L44.27,25.97z"/>
	</g>
	<g>
		<defs>
			<polygon id="SVGID_9_" points="44.33,39.93 84.68,39.93 84.68,15.77 44.33,15.77 44.33,39.93 			"/>
		</defs>
		<clipPath id="SVGID_10_">
			<use xlink:href="#SVGID_9_"  style="overflow:visible;"/>
		</clipPath>
		<path class="st6" d="M83.19,24.59c0.14,0,0.25,0.11,0.25,0.25c0,0.14-0.11,0.25-0.25,0.25c-0.14,0-0.25-0.11-0.25-0.25
			C82.95,24.71,83.06,24.59,83.19,24.59L83.19,24.59z"/>
		<path class="st6" d="M44.27,22.97c1.03,0,1.87,0.84,1.87,1.87c0,1.03-0.84,1.87-1.87,1.87c-1.03,0-1.87-0.84-1.87-1.87
			C42.4,23.81,43.24,22.97,44.27,22.97L44.27,22.97z"/>
	</g>
	<g>
		<defs>
			<polygon id="SVGID_11_" points="44.33,39.93 84.68,39.93 84.68,15.77 44.33,15.77 44.33,39.93 			"/>
		</defs>
		<clipPath id="SVGID_12_">
			<use xlink:href="#SVGID_11_"  style="overflow:visible;"/>
		</clipPath>
		<path class="st7" d="M83.19,21.6c0.14,0,0.25,0.11,0.25,0.25c0,0.14-0.11,0.25-0.25,0.25c-0.14,0-0.25-0.11-0.25-0.25
			C82.95,21.71,83.06,21.6,83.19,21.6L83.19,21.6z"/>
		<path class="st7" d="M44.27,19.98c1.03,0,1.87,0.84,1.87,1.87c0,1.03-0.84,1.87-1.87,1.87c-1.03,0-1.87-0.84-1.87-1.87
			C42.4,20.82,43.24,19.98,44.27,19.98L44.27,19.98z"/>
	</g>
	<g>
		<defs>
			<polygon id="SVGID_13_" points="44.33,39.93 84.68,39.93 84.68,15.77 44.33,15.77 44.33,39.93 			"/>
		</defs>
		<clipPath id="SVGID_14_">
			<use xlink:href="#SVGID_13_"  style="overflow:visible;"/>
		</clipPath>
		<path class="st8" d="M83.19,18.6c0.14,0,0.25,0.11,0.25,0.25c0,0.14-0.11,0.25-0.25,0.25c-0.14,0-0.25-0.11-0.25-0.25
			C82.95,18.72,83.06,18.6,83.19,18.6L83.19,18.6z"/>
		<path class="st8" d="M44.27,16.98c1.03,0,1.87,0.84,1.87,1.87c0,1.03-0.84,1.87-1.87,1.87c-1.03,0-1.87-0.84-1.87-1.87
			C42.4,17.82,43.24,16.98,44.27,16.98L44.27,16.98z"/>
	</g>
	<g>
		<defs>
			<polygon id="SVGID_15_" points="44.33,39.93 84.68,39.93 84.68,15.77 44.33,15.77 44.33,39.93 			"/>
		</defs>
		<clipPath id="SVGID_16_">
			<use xlink:href="#SVGID_15_"  style="overflow:visible;"/>
		</clipPath>
		<path class="st9" d="M47.27,14.11c0.96,0,1.75,0.78,1.75,1.75c0,0.96-0.78,1.75-1.75,1.75c-0.97,0-1.75-0.78-1.75-1.75
			C45.52,14.9,46.3,14.11,47.27,14.11L47.27,14.11z"/>
		<path class="st9" d="M50.26,14.24c0.89,0,1.62,0.73,1.62,1.62c0,0.9-0.73,1.62-1.62,1.62c-0.89,0-1.62-0.73-1.62-1.62
			C48.64,14.96,49.37,14.24,50.26,14.24L50.26,14.24z"/>
		<path class="st9" d="M53.25,14.36c0.83,0,1.5,0.67,1.5,1.5c0,0.83-0.67,1.5-1.5,1.5c-0.82,0-1.49-0.67-1.49-1.5
			C51.76,15.03,52.43,14.36,53.25,14.36L53.25,14.36z"/>
		<path class="st9" d="M56.25,14.49c0.76,0,1.37,0.62,1.37,1.37c0,0.76-0.61,1.37-1.37,1.37c-0.76,0-1.37-0.61-1.37-1.37
			C54.88,15.1,55.49,14.49,56.25,14.49L56.25,14.49z"/>
		<path class="st9" d="M59.24,14.61c0.69,0,1.25,0.56,1.25,1.25c0,0.69-0.56,1.25-1.25,1.25c-0.69,0-1.25-0.56-1.25-1.25
			C57.99,15.17,58.55,14.61,59.24,14.61L59.24,14.61z"/>
		<path class="st9" d="M62.24,14.74c0.62,0,1.12,0.5,1.12,1.12c0,0.62-0.5,1.12-1.12,1.12c-0.62,0-1.13-0.5-1.13-1.12
			C61.11,15.24,61.62,14.74,62.24,14.74L62.24,14.74z"/>
		<path class="st9" d="M65.23,14.86c0.55,0,1,0.45,1,1c0,0.55-0.45,1-1,1s-1-0.45-1-1C64.23,15.31,64.68,14.86,65.23,14.86
			L65.23,14.86z"/>
		<path class="st9" d="M68.22,14.99c0.48,0,0.87,0.39,0.87,0.87c0,0.48-0.39,0.87-0.87,0.87c-0.48,0-0.87-0.39-0.87-0.87
			C67.35,15.38,67.74,14.99,68.22,14.99L68.22,14.99z"/>
		<path class="st9" d="M71.22,15.11c0.41,0,0.75,0.34,0.75,0.75c0,0.41-0.34,0.75-0.75,0.75c-0.41,0-0.75-0.34-0.75-0.75
			C70.47,15.45,70.81,15.11,71.22,15.11L71.22,15.11z"/>
		<path class="st9" d="M74.21,15.24c0.35,0,0.63,0.28,0.63,0.62c0,0.34-0.28,0.62-0.63,0.62c-0.34,0-0.62-0.28-0.62-0.62
			C73.59,15.52,73.87,15.24,74.21,15.24L74.21,15.24z"/>
		<path class="st9" d="M77.21,15.36c0.27,0,0.5,0.22,0.5,0.5c0,0.28-0.22,0.5-0.5,0.5c-0.28,0-0.5-0.22-0.5-0.5
			C76.71,15.58,76.93,15.36,77.21,15.36L77.21,15.36z"/>
		<path class="st9" d="M80.2,15.48c0.21,0,0.37,0.17,0.37,0.38c0,0.21-0.17,0.38-0.37,0.38c-0.21,0-0.37-0.17-0.37-0.38
			C79.83,15.65,79.99,15.48,80.2,15.48L80.2,15.48z"/>
		<path class="st9" d="M83.19,15.61c0.14,0,0.25,0.11,0.25,0.25c0,0.14-0.11,0.25-0.25,0.25c-0.14,0-0.25-0.11-0.25-0.25
			C82.95,15.72,83.06,15.61,83.19,15.61L83.19,15.61z"/>
		<path class="st9" d="M44.27,13.99c1.03,0,1.87,0.84,1.87,1.87c0,1.03-0.84,1.87-1.87,1.87c-1.03,0-1.87-0.84-1.87-1.87
			C42.4,14.83,43.24,13.99,44.27,13.99L44.27,13.99z"/>
	</g>
	<g>
		<defs>
			<polygon id="SVGID_17_" points="41.03,39.93 0.68,39.93 0.68,15.77 41.03,15.77 41.03,39.93 			"/>
		</defs>
		<clipPath id="SVGID_18_">
			<use xlink:href="#SVGID_17_"  style="overflow:visible;"/>
		</clipPath>
		<path class="st10" d="M2.16,36.57c-0.14,0-0.25,0.11-0.25,0.25c0,0.14,0.11,0.25,0.25,0.25c0.14,0,0.25-0.11,0.25-0.25
			C2.41,36.68,2.3,36.57,2.16,36.57L2.16,36.57z"/>
		<path class="st10" d="M41.08,34.95c-1.03,0-1.87,0.84-1.87,1.87c0,1.04,0.84,1.87,1.87,1.87c1.03,0,1.87-0.84,1.87-1.87
			C42.95,35.79,42.11,34.95,41.08,34.95L41.08,34.95z"/>
		<path class="st10" d="M38.09,38.07c-0.96,0-1.75,0.78-1.75,1.75c0,0.96,0.78,1.75,1.75,1.75c0.96,0,1.75-0.78,1.75-1.75
			C39.83,38.85,39.05,38.07,38.09,38.07L38.09,38.07z"/>
		<path class="st10" d="M35.09,38.19c-0.89,0-1.62,0.73-1.62,1.62c0,0.89,0.73,1.62,1.62,1.62c0.9,0,1.62-0.73,1.62-1.62
			C36.71,38.92,35.99,38.19,35.09,38.19L35.09,38.19z"/>
		<path class="st10" d="M32.1,38.32c-0.83,0-1.5,0.67-1.5,1.5c0,0.83,0.67,1.5,1.5,1.5c0.83,0,1.5-0.67,1.5-1.5
			C33.6,38.99,32.93,38.32,32.1,38.32L32.1,38.32z"/>
		<path class="st10" d="M29.11,38.44c-0.76,0-1.37,0.61-1.37,1.37c0,0.76,0.61,1.37,1.37,1.37c0.76,0,1.37-0.61,1.37-1.37
			C30.48,39.06,29.86,38.44,29.11,38.44L29.11,38.44z"/>
		<path class="st10" d="M26.11,38.57c-0.69,0-1.25,0.56-1.25,1.25c0,0.69,0.56,1.25,1.25,1.25c0.69,0,1.25-0.56,1.25-1.25
			C27.36,39.13,26.8,38.57,26.11,38.57L26.11,38.57z"/>
		<path class="st10" d="M23.12,38.69c-0.62,0-1.12,0.5-1.12,1.12c0,0.62,0.5,1.12,1.12,1.12c0.62,0,1.12-0.5,1.12-1.12
			C24.24,39.2,23.74,38.69,23.12,38.69L23.12,38.69z"/>
		<path class="st10" d="M20.12,38.82c-0.55,0-1,0.45-1,1c0,0.55,0.44,1,1,1c0.55,0,1-0.45,1-1C21.12,39.26,20.67,38.82,20.12,38.82
			L20.12,38.82z"/>
		<path class="st10" d="M17.13,38.94c-0.48,0-0.87,0.39-0.87,0.87c0,0.48,0.39,0.87,0.87,0.87c0.48,0,0.87-0.39,0.87-0.87
			C18,39.33,17.61,38.94,17.13,38.94L17.13,38.94z"/>
		<path class="st10" d="M14.13,39.07c-0.41,0-0.75,0.33-0.75,0.75c0,0.41,0.34,0.75,0.75,0.75c0.41,0,0.75-0.34,0.75-0.75
			C14.88,39.4,14.55,39.07,14.13,39.07L14.13,39.07z"/>
		<path class="st10" d="M11.14,39.19c-0.34,0-0.62,0.28-0.62,0.62c0,0.34,0.28,0.62,0.62,0.62c0.35,0,0.62-0.28,0.62-0.62
			C11.76,39.47,11.48,39.19,11.14,39.19L11.14,39.19z"/>
		<path class="st10" d="M8.14,39.32c-0.28,0-0.5,0.22-0.5,0.5c0,0.28,0.22,0.5,0.5,0.5c0.28,0,0.5-0.22,0.5-0.5
			C8.64,39.54,8.42,39.32,8.14,39.32L8.14,39.32z"/>
		<path class="st10" d="M5.15,39.44c-0.2,0-0.37,0.17-0.37,0.37c0,0.21,0.17,0.37,0.37,0.37c0.21,0,0.38-0.17,0.38-0.37
			C5.53,39.61,5.36,39.44,5.15,39.44L5.15,39.44z"/>
		<path class="st10" d="M2.16,39.57c-0.14,0-0.25,0.11-0.25,0.25c0,0.14,0.11,0.25,0.25,0.25c0.14,0,0.25-0.11,0.25-0.25
			C2.41,39.68,2.3,39.57,2.16,39.57L2.16,39.57z"/>
		<path class="st10" d="M41.08,37.94c-1.03,0-1.87,0.84-1.87,1.87c0,1.03,0.84,1.87,1.87,1.87c1.03,0,1.87-0.84,1.87-1.87
			C42.95,38.78,42.11,37.94,41.08,37.94L41.08,37.94z"/>
	</g>
	<g>
		<defs>
			<polygon id="SVGID_19_" points="41.03,39.93 0.68,39.93 0.68,15.77 41.03,15.77 41.03,39.93 			"/>
		</defs>
		<clipPath id="SVGID_20_">
			<use xlink:href="#SVGID_19_"  style="overflow:visible;"/>
		</clipPath>
		<path class="st11" d="M2.16,33.58c-0.14,0-0.25,0.11-0.25,0.25c0,0.14,0.11,0.25,0.25,0.25c0.14,0,0.25-0.11,0.25-0.25
			C2.41,33.69,2.3,33.58,2.16,33.58L2.16,33.58z"/>
		<path class="st11" d="M41.08,31.96c-1.03,0-1.87,0.84-1.87,1.87c0,1.03,0.84,1.87,1.87,1.87c1.03,0,1.87-0.84,1.87-1.87
			C42.95,32.79,42.11,31.96,41.08,31.96L41.08,31.96z"/>
	</g>
	<g>
		<defs>
			<polygon id="SVGID_21_" points="41.03,39.93 0.68,39.93 0.68,15.77 41.03,15.77 41.03,39.93 			"/>
		</defs>
		<clipPath id="SVGID_22_">
			<use xlink:href="#SVGID_21_"  style="overflow:visible;"/>
		</clipPath>
		<path class="st12" d="M2.16,30.58c-0.14,0-0.25,0.11-0.25,0.25c0,0.14,0.11,0.25,0.25,0.25c0.14,0,0.25-0.11,0.25-0.25
			C2.41,30.69,2.3,30.58,2.16,30.58L2.16,30.58z"/>
		<path class="st12" d="M41.08,28.96c-1.03,0-1.87,0.84-1.87,1.87c0,1.03,0.84,1.87,1.87,1.87c1.03,0,1.87-0.84,1.87-1.87
			C42.95,29.8,42.11,28.96,41.08,28.96L41.08,28.96z"/>
	</g>
	<g>
		<defs>
			<polygon id="SVGID_23_" points="41.03,39.93 0.68,39.93 0.68,15.77 41.03,15.77 41.03,39.93 			"/>
		</defs>
		<clipPath id="SVGID_24_">
			<use xlink:href="#SVGID_23_"  style="overflow:visible;"/>
		</clipPath>
		<path class="st13" d="M2.16,27.59c-0.14,0-0.25,0.11-0.25,0.25c0,0.14,0.11,0.25,0.25,0.25c0.14,0,0.25-0.11,0.25-0.25
			C2.41,27.7,2.3,27.59,2.16,27.59L2.16,27.59z"/>
		<path class="st13" d="M41.08,25.97c-1.03,0-1.87,0.84-1.87,1.87c0,1.03,0.84,1.87,1.87,1.87c1.03,0,1.87-0.84,1.87-1.87
			C42.95,26.8,42.11,25.97,41.08,25.97L41.08,25.97z"/>
	</g>
	<g>
		<defs>
			<polygon id="SVGID_25_" points="41.03,39.93 0.68,39.93 0.68,15.77 41.03,15.77 41.03,39.93 			"/>
		</defs>
		<clipPath id="SVGID_26_">
			<use xlink:href="#SVGID_25_"  style="overflow:visible;"/>
		</clipPath>
		<path class="st14" d="M2.16,24.59c-0.14,0-0.25,0.11-0.25,0.25c0,0.14,0.11,0.25,0.25,0.25c0.14,0,0.25-0.11,0.25-0.25
			C2.41,24.71,2.3,24.59,2.16,24.59L2.16,24.59z"/>
		<path class="st14" d="M41.08,22.97c-1.03,0-1.87,0.84-1.87,1.87c0,1.03,0.84,1.87,1.87,1.87c1.03,0,1.87-0.84,1.87-1.87
			C42.95,23.81,42.11,22.97,41.08,22.97L41.08,22.97z"/>
	</g>
	<g>
		<defs>
			<polygon id="SVGID_27_" points="41.03,39.93 0.68,39.93 0.68,15.77 41.03,15.77 41.03,39.93 			"/>
		</defs>
		<clipPath id="SVGID_28_">
			<use xlink:href="#SVGID_27_"  style="overflow:visible;"/>
		</clipPath>
		<path class="st15" d="M2.16,21.6c-0.14,0-0.25,0.11-0.25,0.25c0,0.14,0.11,0.25,0.25,0.25c0.14,0,0.25-0.11,0.25-0.25
			C2.41,21.71,2.3,21.6,2.16,21.6L2.16,21.6z"/>
		<path class="st15" d="M41.08,19.98c-1.03,0-1.87,0.84-1.87,1.87c0,1.03,0.84,1.87,1.87,1.87c1.03,0,1.87-0.84,1.87-1.87
			C42.95,20.82,42.11,19.98,41.08,19.98L41.08,19.98z"/>
	</g>
	<g>
		<defs>
			<polygon id="SVGID_29_" points="41.03,39.93 0.68,39.93 0.68,15.77 41.03,15.77 41.03,39.93 			"/>
		</defs>
		<clipPath id="SVGID_30_">
			<use xlink:href="#SVGID_29_"  style="overflow:visible;"/>
		</clipPath>
		<path class="st16" d="M2.16,18.6c-0.14,0-0.25,0.11-0.25,0.25c0,0.14,0.11,0.25,0.25,0.25c0.14,0,0.25-0.11,0.25-0.25
			C2.41,18.72,2.3,18.6,2.16,18.6L2.16,18.6z"/>
		<path class="st16" d="M41.08,16.98c-1.03,0-1.87,0.84-1.87,1.87c0,1.03,0.84,1.87,1.87,1.87c1.03,0,1.87-0.84,1.87-1.87
			C42.95,17.82,42.11,16.98,41.08,16.98L41.08,16.98z"/>
	</g>
	<g>
		<defs>
			<polygon id="SVGID_31_" points="41.03,39.93 0.68,39.93 0.68,15.77 41.03,15.77 41.03,39.93 			"/>
		</defs>
		<clipPath id="SVGID_32_">
			<use xlink:href="#SVGID_31_"  style="overflow:visible;"/>
		</clipPath>
		<path class="st17" d="M38.09,14.11c-0.96,0-1.75,0.78-1.75,1.75c0,0.96,0.78,1.75,1.75,1.75c0.97,0,1.75-0.78,1.75-1.75
			C39.83,14.9,39.05,14.11,38.09,14.11L38.09,14.11z"/>
		<path class="st17" d="M35.09,14.24c-0.89,0-1.62,0.73-1.62,1.62c0,0.9,0.73,1.62,1.62,1.62c0.9,0,1.62-0.73,1.62-1.62
			C36.71,14.96,35.99,14.24,35.09,14.24L35.09,14.24z"/>
		<path class="st17" d="M32.1,14.36c-0.83,0-1.5,0.67-1.5,1.5c0,0.83,0.67,1.5,1.5,1.5c0.83,0,1.5-0.67,1.5-1.5
			C33.6,15.03,32.93,14.36,32.1,14.36L32.1,14.36z"/>
		<path class="st17" d="M29.1,14.49c-0.76,0-1.37,0.62-1.37,1.37c0,0.76,0.61,1.37,1.37,1.37c0.76,0,1.37-0.61,1.37-1.37
			C30.48,15.1,29.86,14.49,29.1,14.49L29.1,14.49z"/>
		<path class="st17" d="M26.11,14.61c-0.69,0-1.25,0.56-1.25,1.25c0,0.69,0.56,1.25,1.25,1.25c0.69,0,1.25-0.56,1.25-1.25
			C27.36,15.17,26.8,14.61,26.11,14.61L26.11,14.61z"/>
		<path class="st17" d="M23.11,14.74c-0.62,0-1.12,0.5-1.12,1.12c0,0.62,0.5,1.12,1.12,1.12c0.62,0,1.12-0.5,1.12-1.12
			C24.24,15.24,23.74,14.74,23.11,14.74L23.11,14.74z"/>
		<path class="st17" d="M20.12,14.86c-0.55,0-1,0.45-1,1c0,0.55,0.45,1,1,1c0.55,0,1-0.45,1-1C21.12,15.31,20.67,14.86,20.12,14.86
			L20.12,14.86z"/>
		<path class="st17" d="M17.13,14.99c-0.48,0-0.87,0.39-0.87,0.87c0,0.48,0.39,0.87,0.87,0.87c0.48,0,0.87-0.39,0.87-0.87
			C18,15.38,17.61,14.99,17.13,14.99L17.13,14.99z"/>
		<path class="st17" d="M14.13,15.11c-0.41,0-0.75,0.34-0.75,0.75c0,0.41,0.33,0.75,0.75,0.75c0.41,0,0.75-0.34,0.75-0.75
			C14.88,15.45,14.55,15.11,14.13,15.11L14.13,15.11z"/>
		<path class="st17" d="M11.14,15.24c-0.35,0-0.62,0.28-0.62,0.62c0,0.34,0.28,0.62,0.62,0.62c0.34,0,0.62-0.28,0.62-0.62
			C11.76,15.52,11.48,15.24,11.14,15.24L11.14,15.24z"/>
		<path class="st17" d="M8.14,15.36c-0.27,0-0.5,0.22-0.5,0.5c0,0.28,0.22,0.5,0.5,0.5c0.28,0,0.5-0.22,0.5-0.5
			C8.64,15.58,8.42,15.36,8.14,15.36L8.14,15.36z"/>
		<path class="st17" d="M5.15,15.48c-0.21,0-0.37,0.17-0.37,0.38c0,0.21,0.17,0.38,0.37,0.38c0.21,0,0.38-0.17,0.38-0.38
			C5.53,15.65,5.36,15.48,5.15,15.48L5.15,15.48z"/>
		<path class="st17" d="M2.16,15.61c-0.14,0-0.25,0.11-0.25,0.25c0,0.14,0.11,0.25,0.25,0.25c0.14,0,0.25-0.11,0.25-0.25
			C2.41,15.72,2.29,15.61,2.16,15.61L2.16,15.61z"/>
		<path class="st17" d="M41.08,13.99c-1.03,0-1.87,0.84-1.87,1.87c0,1.03,0.84,1.87,1.87,1.87c1.03,0,1.87-0.84,1.87-1.87
			C42.95,14.83,42.11,13.99,41.08,13.99L41.08,13.99z"/>
	</g>
</g>
<path class="st1" d="M138.94,64.44c-0.93,0-2.27-0.22-3.07-0.71l0.13-1.69c1,0.84,2.25,1,2.78,1c2.31,0,2.63-1.87,2.63-2.56
	c0-1.6-0.82-2.09-2.07-3.01l-1.32-0.96c-1.49-1.07-2.18-2.03-2.18-3.67c0-3.25,3.09-3.72,4.05-3.72c1.2,0,2.18,0.35,2.61,0.47
	l-0.13,1.65c-0.62-0.38-1.36-0.71-2.47-0.71c-0.94,0-2.4,0.53-2.4,2.16c0,1.27,0.64,1.89,1.67,2.63l1.32,0.94
	c1.96,1.4,2.59,2.18,2.59,4.03C143.06,62.79,141.28,64.44,138.94,64.44"/>
<path class="st1" d="M148.87,54.1c-1.69,0-2.36,2.27-2.36,3.79h4.47C150.98,56.49,150.6,54.1,148.87,54.1 M146.51,59.02
	c0,1.94,0.63,4.16,2.99,4.16c0.85,0,1.82-0.38,2.49-0.87l0.13,1.49c-0.78,0.4-1.91,0.63-2.78,0.63c-3.36,0-4.34-2.87-4.34-5.84
	c0-2.65,1.04-5.72,3.87-5.72c2.92,0,3.61,3.12,3.61,5.5v0.65H146.51L146.51,59.02z"/>
<path class="st1" d="M46.96,50.7h-1.11v5.79h1.4c2,0,3.05-0.82,3.05-2.9C50.3,51.43,49.05,50.7,46.96,50.7 M47.67,57.84h-1.83v6.35
	h-1.56V49.34h3.03c2.78,0,4.63,1.31,4.63,4.25C51.95,56.22,50.3,57.84,47.67,57.84"/>
</svg>
