<svg width="166" height="29" viewBox="0 0 166 29" fill="none" xmlns="http://www.w3.org/2000/svg">
<path d="M77.2783 28.6678V14.0789H81.0529V16.8293C81.5491 15.9435 82.2004 15.2083 83.0067 14.6236C83.813 14.039 84.8009 13.7467 85.9705 13.7467C86.6794 13.7467 87.2952 13.8574 87.818 14.0789C88.3407 14.2915 88.8015 14.6325 89.2002 15.102C89.6078 15.5626 89.8692 16.1383 89.9844 16.8293C90.7109 15.7309 91.4464 14.9425 92.1906 14.4642C92.9438 13.9859 93.8564 13.7467 94.9286 13.7467C96.1159 13.7467 97.0772 14.0966 97.8127 14.7964C98.557 15.4873 98.9291 16.6078 98.9291 18.1579V28.6678H95.1545V19.4468C95.1545 18.3572 94.9773 17.653 94.6229 17.3342C94.2773 17.0153 93.8874 16.8558 93.4533 16.8558C92.8596 16.8558 92.2704 17.0684 91.6856 17.4936C91.1097 17.9188 90.5426 18.5566 89.9844 19.4069V28.6678H86.2098V19.4468C86.2098 18.3661 86.037 17.6619 85.6914 17.3342C85.3547 17.0064 84.9471 16.8425 84.4687 16.8425C83.8927 16.8425 83.3168 17.0551 82.7409 17.4803C82.1738 17.9055 81.6111 18.5477 81.0529 19.4069V28.6678H77.2783Z" fill="#CF1C16"/>
<path d="M108.805 29C107.228 29 105.872 28.6944 104.738 28.0832C103.613 27.4632 102.753 26.5552 102.16 25.3594C101.566 24.1636 101.269 22.8349 101.269 21.3734C101.269 19.9207 101.562 18.6008 102.147 17.4139C102.731 16.2181 103.591 15.3101 104.725 14.6901C105.859 14.0612 107.219 13.7467 108.805 13.7467C110.4 13.7467 111.76 14.0612 112.886 14.6901C114.02 15.3101 114.879 16.2181 115.464 17.4139C116.058 18.6008 116.354 19.9207 116.354 21.3734C116.354 22.8349 116.058 24.1636 115.464 25.3594C114.87 26.5552 114.006 27.4632 112.872 28.0832C111.747 28.6944 110.391 29 108.805 29ZM108.805 26.5419C109.922 26.5419 110.759 26.0547 111.317 25.0804C111.884 24.0972 112.168 22.8615 112.168 21.3734C112.168 19.8941 111.884 18.6628 111.317 17.6796C110.759 16.6964 109.922 16.2048 108.805 16.2048C107.698 16.2048 106.86 16.6964 106.293 17.6796C105.735 18.6628 105.456 19.8941 105.456 21.3734C105.456 22.8615 105.735 24.0972 106.293 25.0804C106.86 26.0547 107.698 26.5419 108.805 26.5419Z" fill="#CF1C16"/>
<path d="M126.403 28.5881C125.464 28.8627 124.724 29 124.184 29C122.899 29 121.902 28.8184 121.193 28.4552C120.485 28.0921 119.953 27.6005 119.599 26.9804C119.244 26.3515 119.067 25.4303 119.067 24.2167V16.537H117.432V14.0789H119.067V11.6208L123.001 11.1691V14.0789H126.124V16.537H123.001V23.6986C123.001 24.7526 123.187 25.4657 123.559 25.8377C123.931 26.2009 124.476 26.3825 125.194 26.3825C125.531 26.3825 125.934 26.3205 126.403 26.1965V28.5881Z" fill="#CF1C16"/>
<path d="M128.823 28.6678V14.0789H132.757V28.6678H128.823Z" fill="#CF1C16"/>
<path d="M142.806 29C141.229 29 139.874 28.6944 138.739 28.0832C137.614 27.4632 136.755 26.5552 136.161 25.3594C135.567 24.1636 135.271 22.8349 135.271 21.3734C135.271 19.9207 135.563 18.6008 136.148 17.4139C136.733 16.2181 137.592 15.3101 138.726 14.6901C139.86 14.0612 141.22 13.7467 142.806 13.7467C144.401 13.7467 145.761 14.0612 146.887 14.6901C148.021 15.3101 148.88 16.2181 149.465 17.4139C150.059 18.6008 150.356 19.9207 150.356 21.3734C150.356 22.8349 150.059 24.1636 149.465 25.3594C148.871 26.5552 148.008 27.4632 146.873 28.0832C145.748 28.6944 144.392 29 142.806 29ZM142.806 26.5419C143.923 26.5419 144.76 26.0547 145.318 25.0804C145.885 24.0972 146.169 22.8615 146.169 21.3734C146.169 19.8941 145.885 18.6628 145.318 17.6796C144.76 16.6964 143.923 16.2048 142.806 16.2048C141.699 16.2048 140.862 16.6964 140.294 17.6796C139.736 18.6628 139.457 19.8941 139.457 21.3734C139.457 22.8615 139.736 24.0972 140.294 25.0804C140.862 26.0547 141.699 26.5419 142.806 26.5419Z" fill="#CF1C16"/>
<path d="M152.882 28.6678V14.0789H156.816V16.8293C157.525 15.7043 158.309 14.9115 159.169 14.4509C160.028 13.9815 160.901 13.7467 161.787 13.7467C162.939 13.7467 163.927 14.1188 164.751 14.8628C165.584 15.598 166 16.7628 166 18.3572V28.6678H162.066V19.3272C162.066 18.53 161.991 17.9896 161.84 17.7062C161.698 17.4227 161.499 17.2102 161.242 17.0684C160.994 16.9178 160.715 16.8425 160.405 16.8425C159.864 16.8425 159.301 17.0241 158.717 17.3873C158.132 17.7416 157.498 18.4414 156.816 19.4866V28.6678H152.882Z" fill="#CF1C16"/>
<path d="M0 28.6678V14.0789H3.7746V16.8293C4.27079 15.9435 4.92204 15.2083 5.72835 14.6237C6.53467 14.039 7.52262 13.7467 8.69221 13.7467C9.40106 13.7467 10.0169 13.8574 10.5396 14.0789C11.0624 14.2915 11.5232 14.6325 11.9219 15.102C12.3295 15.5626 12.5909 16.1384 12.706 16.8293C13.4326 15.7309 14.168 14.9425 14.9123 14.4642C15.6655 13.9859 16.5781 13.7467 17.6502 13.7467C18.8376 13.7467 19.7989 14.0966 20.5344 14.7964C21.2786 15.4873 21.6508 16.6078 21.6508 18.1579V28.6678H17.8762V19.4468C17.8762 18.3573 17.699 17.6531 17.3446 17.3342C16.999 17.0153 16.6091 16.8558 16.175 16.8558C15.5813 16.8558 14.9921 17.0684 14.4073 17.4936C13.8313 17.9188 13.2643 18.5566 12.706 19.4069V28.6678H8.93145V19.4468C8.93145 18.3661 8.75867 17.6619 8.41311 17.3342C8.0764 17.0064 7.66882 16.8426 7.19035 16.8426C6.61441 16.8426 6.03847 17.0551 5.46254 17.4803C4.89546 17.9055 4.33282 18.5477 3.7746 19.4069V28.6678H0Z" fill="#2A6A6A"/>
<path d="M32.4573 27.1C31.8902 27.6492 31.3985 28.0433 30.982 28.2825C30.5656 28.5217 30.1314 28.6988 29.6795 28.814C29.2276 28.938 28.7492 29 28.2441 29C26.9416 29 25.8961 28.597 25.1075 27.7909C24.3277 26.976 23.9379 25.9795 23.9379 24.8014C23.9379 23.3664 24.5227 22.1706 25.6923 21.2139C26.8707 20.2484 28.7757 19.7657 31.4073 19.7657H32.4573V18.437C32.4573 17.5423 32.2092 16.94 31.713 16.63C31.2168 16.3199 30.5877 16.1649 29.8257 16.1649C28.3194 16.1649 26.7821 16.599 25.2138 17.467V14.7565C26.9948 14.0833 28.7669 13.7467 30.5301 13.7467C31.6111 13.7467 32.5769 13.8929 33.4275 14.1852C34.2782 14.4775 34.956 14.9337 35.461 15.5537C35.975 16.1649 36.2319 17.0817 36.2319 18.3041V24.7615C36.2319 25.5499 36.3515 26.0326 36.5908 26.2098C36.8389 26.3869 37.0825 26.4755 37.3218 26.4755C37.4635 26.4755 37.6407 26.4578 37.8534 26.4224L37.9464 28.628C37.1135 28.876 36.3737 29 35.7269 29C35.0003 29 34.3712 28.8804 33.8396 28.6413C33.3168 28.3932 32.9136 27.8795 32.6301 27.1H32.4573ZM32.4573 24.9874V22.0244H31.5269C30.2422 22.0244 29.2852 22.2547 28.6561 22.7153C28.027 23.1671 27.7125 23.734 27.7125 24.416C27.7125 24.9741 27.903 25.4347 28.284 25.7979C28.665 26.1522 29.1124 26.3293 29.6264 26.3293C30.0871 26.3293 30.5523 26.2186 31.0219 25.9972C31.5004 25.7669 31.9788 25.4303 32.4573 24.9874Z" fill="#2A6A6A"/>
<path d="M38.6652 28.6678L43.6758 21.3468L38.8778 14.0789H43.3569L46.4935 18.7027L49.4972 14.0789H52.687L48.115 21.2405L53.0193 28.6678H48.5403L45.2707 23.8447L41.9215 28.6678H38.6652Z" fill="#2A6A6A"/>
<path d="M55.2134 28.6678V14.0789H59.1474V28.6678H55.2134Z" fill="#2A6A6A"/>
<path d="M62.5908 28.2028V25.3195C64.5402 26.1345 66.206 26.5419 67.5882 26.5419C68.3236 26.5419 68.9084 26.3869 69.3426 26.0769C69.7856 25.7669 70.0071 25.3727 70.0071 24.8944C70.0071 24.4781 69.8432 24.1282 69.5154 23.8447C69.1875 23.5701 68.6869 23.3 68.0135 23.0342L66.6844 22.5027C65.311 21.9536 64.2965 21.3468 63.6408 20.6824C62.9851 20.027 62.6573 19.1722 62.6573 18.1181C62.6573 16.8514 63.1491 15.8062 64.1326 14.9824C65.125 14.1586 66.6357 13.7467 68.6648 13.7467C69.8521 13.7467 71.2653 13.9195 72.9045 14.2649V17.0286C71.3274 16.4794 70.0204 16.2048 68.9837 16.2048C68.1686 16.2048 67.5572 16.3465 67.1496 16.63C66.742 16.9046 66.5382 17.2633 66.5382 17.7062C66.5382 18.0517 66.6711 18.3573 66.937 18.623C67.1939 18.8887 67.6635 19.15 68.3458 19.4069L69.4888 19.8454C71.3761 20.5629 72.6121 21.2582 73.1969 21.9314C73.7729 22.6135 74.0608 23.4284 74.0608 24.3762C74.0608 25.6074 73.5292 26.6881 72.4659 27.6182C71.4115 28.5394 69.8742 29 67.854 29C66.1351 29 64.3807 28.7343 62.5908 28.2028Z" fill="#2A6A6A"/>
<path d="M127.493 8.55843V3.07226L131.005 7.4612L137.152 0V5.26673L131.005 12.7279L127.493 8.55843Z" fill="#2A6A6A"/>
</svg>
