<?xml version="1.0" encoding="utf-8"?>
<!-- Generator: Adobe Illustrator 27.0.0, SVG Export Plug-In . SVG Version: 6.00 Build 0)  -->
<svg version="1.1" id="Ebene_1" xmlns="http://www.w3.org/2000/svg" xmlns:xlink="http://www.w3.org/1999/xlink" x="0px" y="0px"
	 viewBox="0 0 566.9 566.9" style="enable-background:new 0 0 566.9 566.9;" xml:space="preserve">
<style type="text/css">
	.st0{fill:#0057B7;}
</style>
<g>
	<path class="st0" d="M565.5,283.5c0-155.9-126.4-282-282-282c-155.9,0-282,126.4-282,282c0,155.9,126.4,282,282,282
		S565.5,439.1,565.5,283.5 M60.1,160.6h137.3L84.2,440.7h399.5C437.1,500,364.7,538,283.3,538C142.5,538,28.5,424,28.5,283.3
		C28.7,238.9,40,197.1,60.1,160.6 M446.7,282.5V248h-69.1v-87.2h128.8c20.1,36.4,31.4,78.2,31.4,122.8s-11.3,86.4-31.4,122.8h-326
		l113.1-280.1H83c46.6-59.3,119-97.3,200.4-97.3c81.2,0,153.7,38,200.4,97.3H301.8v254.8h76v-98.7H446.7z"/>
</g>
</svg>
